<?xml version="1.0" encoding="UTF-8" standalone="no"?>
<!-- Created with Inkscape (http://www.inkscape.org/) -->

<svg
   version="1.1"
   id="svg2"
   width="976.96118"
   height="942.36774"
   viewBox="0 0 976.96118 942.36774"
   xmlns="http://www.w3.org/2000/svg"
   xmlns:svg="http://www.w3.org/2000/svg">
  <defs
     id="defs6">
    <clipPath
       clipPathUnits="userSpaceOnUse"
       id="clipPath20">
      <path
         d="M 108,108 H 777.6 V 760.32 H 108 Z"
         id="path18" />
    </clipPath>
    <clipPath
       clipPathUnits="userSpaceOnUse"
       id="clipPath30">
      <path
         d="M 108,108 H 777.6 V 760.32 H 108 Z"
         id="path28" />
    </clipPath>
    <clipPath
       clipPathUnits="userSpaceOnUse"
       id="clipPath40">
      <path
         d="M 108,108 H 777.6 V 760.32 H 108 Z"
         id="path38" />
    </clipPath>
    <clipPath
       clipPathUnits="userSpaceOnUse"
       id="clipPath50">
      <path
         d="M 108,108 H 777.6 V 760.32 H 108 Z"
         id="path48" />
    </clipPath>
    <clipPath
       clipPathUnits="userSpaceOnUse"
       id="clipPath60">
      <path
         d="M 108,108 H 777.6 V 760.32 H 108 Z"
         id="path58" />
    </clipPath>
    <clipPath
       clipPathUnits="userSpaceOnUse"
       id="clipPath70">
      <path
         d="M 108,108 H 777.6 V 760.32 H 108 Z"
         id="path68" />
    </clipPath>
    <clipPath
       clipPathUnits="userSpaceOnUse"
       id="clipPath80">
      <path
         d="M 108,108 H 777.6 V 760.32 H 108 Z"
         id="path78" />
    </clipPath>
    <clipPath
       clipPathUnits="userSpaceOnUse"
       id="clipPath90">
      <path
         d="M 108,108 H 777.6 V 760.32 H 108 Z"
         id="path88" />
    </clipPath>
    <clipPath
       clipPathUnits="userSpaceOnUse"
       id="clipPath100">
      <path
         d="M 108,108 H 777.6 V 760.32 H 108 Z"
         id="path98" />
    </clipPath>
    <clipPath
       clipPathUnits="userSpaceOnUse"
       id="clipPath110">
      <path
         d="M 108,108 H 777.6 V 760.32 H 108 Z"
         id="path108" />
    </clipPath>
    <clipPath
       clipPathUnits="userSpaceOnUse"
       id="clipPath120">
      <path
         d="M 108,108 H 777.6 V 760.32 H 108 Z"
         id="path118" />
    </clipPath>
    <clipPath
       clipPathUnits="userSpaceOnUse"
       id="clipPath130">
      <path
         d="M 108,108 H 777.6 V 760.32 H 108 Z"
         id="path128" />
    </clipPath>
    <clipPath
       clipPathUnits="userSpaceOnUse"
       id="clipPath140">
      <path
         d="M 108,108 H 777.6 V 760.32 H 108 Z"
         id="path138" />
    </clipPath>
    <clipPath
       clipPathUnits="userSpaceOnUse"
       id="clipPath158">
      <path
         d="M 108,108 H 777.6 V 760.32 H 108 Z"
         id="path156" />
    </clipPath>
    <clipPath
       clipPathUnits="userSpaceOnUse"
       id="clipPath176">
      <path
         d="M 108,108 H 777.6 V 760.32 H 108 Z"
         id="path174" />
    </clipPath>
    <clipPath
       clipPathUnits="userSpaceOnUse"
       id="clipPath194">
      <path
         d="M 108,108 H 777.6 V 760.32 H 108 Z"
         id="path192" />
    </clipPath>
    <clipPath
       clipPathUnits="userSpaceOnUse"
       id="clipPath212">
      <path
         d="M 108,108 H 777.6 V 760.32 H 108 Z"
         id="path210" />
    </clipPath>
    <clipPath
       clipPathUnits="userSpaceOnUse"
       id="clipPath230">
      <path
         d="M 108,108 H 777.6 V 760.32 H 108 Z"
         id="path228" />
    </clipPath>
    <clipPath
       clipPathUnits="userSpaceOnUse"
       id="clipPath248">
      <path
         d="M 108,108 H 777.6 V 760.32 H 108 Z"
         id="path246" />
    </clipPath>
    <clipPath
       clipPathUnits="userSpaceOnUse"
       id="clipPath270">
      <path
         d="M 108,108 H 777.6 V 760.32 H 108 Z"
         id="path268" />
    </clipPath>
    <clipPath
       clipPathUnits="userSpaceOnUse"
       id="clipPath288">
      <path
         d="M 108,108 H 777.6 V 760.32 H 108 Z"
         id="path286" />
    </clipPath>
    <clipPath
       clipPathUnits="userSpaceOnUse"
       id="clipPath306">
      <path
         d="M 108,108 H 777.6 V 760.32 H 108 Z"
         id="path304" />
    </clipPath>
    <clipPath
       clipPathUnits="userSpaceOnUse"
       id="clipPath324">
      <path
         d="M 108,108 H 777.6 V 760.32 H 108 Z"
         id="path322" />
    </clipPath>
    <clipPath
       clipPathUnits="userSpaceOnUse"
       id="clipPath342">
      <path
         d="M 108,108 H 777.6 V 760.32 H 108 Z"
         id="path340" />
    </clipPath>
    <clipPath
       clipPathUnits="userSpaceOnUse"
       id="clipPath360">
      <path
         d="M 108,108 H 777.6 V 760.32 H 108 Z"
         id="path358" />
    </clipPath>
    <clipPath
       clipPathUnits="userSpaceOnUse"
       id="clipPath378">
      <path
         d="M 108,108 H 777.6 V 760.32 H 108 Z"
         id="path376" />
    </clipPath>
    <clipPath
       clipPathUnits="userSpaceOnUse"
       id="clipPath396">
      <path
         d="M 108,108 H 777.6 V 760.32 H 108 Z"
         id="path394" />
    </clipPath>
    <clipPath
       clipPathUnits="userSpaceOnUse"
       id="clipPath414">
      <path
         d="M 108,108 H 777.6 V 760.32 H 108 Z"
         id="path412" />
    </clipPath>
  </defs>
  <g
     id="g8"
     transform="matrix(1.3333333,0,0,-1.3333333,-66.309467,1016.2827)">
    <path
       d="M 0,0 H 864 V 864 H 0 Z"
       style="fill:#ffffff;fill-opacity:1;fill-rule:nonzero;stroke:none"
       id="path10" />
    <path
       d="M 108,108 H 777.6 V 760.32 H 108 Z"
       style="fill:#ffffff;fill-opacity:1;fill-rule:nonzero;stroke:none"
       id="path12" />
    <g
       id="g14">
      <g
         id="g16"
         clip-path="url(#clipPath20)">
        <path
           d="m 200.30178,346.52859 c 7.07153,0 13.85438,2.80954 18.85471,7.80987 5.00033,5.00033 7.80988,11.78318 7.80988,18.85471 0,7.07153 -2.80955,13.85438 -7.80988,18.85471 -5.00033,5.00032 -11.78318,7.80987 -18.85471,7.80987 -7.07153,0 -13.85438,-2.80955 -18.8547,-7.80987 -5.00033,-5.00033 -7.80988,-11.78318 -7.80988,-18.85471 0,-7.07153 2.80955,-13.85438 7.80988,-18.85471 5.00032,-5.00033 11.78317,-7.80987 18.8547,-7.80987 z"
           style="fill:#1f77b4;fill-opacity:0.6;fill-rule:nonzero;stroke:#000000;stroke-width:1;stroke-linecap:butt;stroke-linejoin:round;stroke-miterlimit:10;stroke-dasharray:none;stroke-opacity:0.6"
           id="path22" />
      </g>
    </g>
    <g
       id="g24">
      <g
         id="g26"
         clip-path="url(#clipPath30)">
        <path
           d="m 595.88086,135.74817 c 2.68825,0 5.26676,1.06805 7.16764,2.96893 1.90088,1.90088 2.96893,4.47939 2.96893,7.16764 0,2.68825 -1.06805,5.26675 -2.96893,7.16763 -1.90088,1.90088 -4.47939,2.96894 -7.16764,2.96894 -2.68825,0 -5.26676,-1.06806 -7.16763,-2.96894 -1.90088,-1.90088 -2.96894,-4.47938 -2.96894,-7.16763 0,-2.68825 1.06806,-5.26676 2.96894,-7.16764 1.90087,-1.90088 4.47938,-2.96893 7.16763,-2.96893 z"
           style="fill:#ff7f0e;fill-opacity:0.6;fill-rule:nonzero;stroke:#000000;stroke-width:1;stroke-linecap:butt;stroke-linejoin:round;stroke-miterlimit:10;stroke-dasharray:none;stroke-opacity:0.6"
           id="path32" />
      </g>
    </g>
    <g
       id="g34">
      <g
         id="g36"
         clip-path="url(#clipPath40)">
        <path
           d="m 615.65981,311.88894 c 2.28522,0 4.47714,0.90793 6.09303,2.52382 1.61589,1.61589 2.52382,3.80781 2.52382,6.09302 0,2.28522 -0.90793,4.47714 -2.52382,6.09303 -1.61589,1.61589 -3.80781,2.52382 -6.09303,2.52382 -2.28521,0 -4.47713,-0.90793 -6.09302,-2.52382 -1.61589,-1.61589 -2.52382,-3.80781 -2.52382,-6.09303 0,-2.28521 0.90793,-4.47713 2.52382,-6.09302 1.61589,-1.61589 3.80781,-2.52382 6.09302,-2.52382 z"
           style="fill:#2ca02c;fill-opacity:0.6;fill-rule:nonzero;stroke:#000000;stroke-width:1;stroke-linecap:butt;stroke-linejoin:round;stroke-miterlimit:10;stroke-dasharray:none;stroke-opacity:0.6"
           id="path42" />
      </g>
    </g>
    <g
       id="g44">
      <g
         id="g46"
         clip-path="url(#clipPath50)">
        <path
           d="m 180.52283,260.26133 c 3.46798,0 6.79439,1.37785 9.24662,3.83008 2.45223,2.45223 3.83008,5.77864 3.83008,9.24662 0,3.46798 -1.37785,6.79439 -3.83008,9.24662 -2.45223,2.45223 -5.77864,3.83008 -9.24662,3.83008 -3.46798,0 -6.79439,-1.37785 -9.24662,-3.83008 -2.45223,-2.45223 -3.83008,-5.77864 -3.83008,-9.24662 0,-3.46798 1.37785,-6.79439 3.83008,-9.24662 2.45223,-2.45223 5.77864,-3.83008 9.24662,-3.83008 z"
           style="fill:#d62728;fill-opacity:0.6;fill-rule:nonzero;stroke:#000000;stroke-width:1;stroke-linecap:butt;stroke-linejoin:round;stroke-miterlimit:10;stroke-dasharray:none;stroke-opacity:0.6"
           id="path52" />
      </g>
    </g>
    <g
       id="g54">
      <g
         id="g56"
         clip-path="url(#clipPath60)">
        <path
           d="m 457.42818,245.23991 c 2.79409,0 5.47412,1.11011 7.44984,3.08583 1.97571,1.97572 3.08582,4.65574 3.08582,7.44983 0,2.79409 -1.11011,5.47411 -3.08582,7.44983 -1.97572,1.97572 -4.65575,3.08582 -7.44984,3.08582 -2.79408,0 -5.47411,-1.1101 -7.44983,-3.08582 -1.97572,-1.97572 -3.08582,-4.65574 -3.08582,-7.44983 0,-2.79409 1.1101,-5.47411 3.08582,-7.44983 1.97572,-1.97572 4.65575,-3.08583 7.44983,-3.08583 z"
           style="fill:#9467bd;fill-opacity:0.6;fill-rule:nonzero;stroke:#000000;stroke-width:1;stroke-linecap:butt;stroke-linejoin:round;stroke-miterlimit:10;stroke-dasharray:none;stroke-opacity:0.6"
           id="path62" />
      </g>
    </g>
    <g
       id="g64">
      <g
         id="g66"
         clip-path="url(#clipPath70)">
        <path
           d="m 233.26671,334.74134 c 6.07222,0 11.89656,2.41252 16.19027,6.70623 4.29371,4.29371 6.70623,10.11805 6.70623,16.19028 0,6.07222 -2.41252,11.89656 -6.70623,16.19027 -4.29371,4.29371 -10.11805,6.70623 -16.19027,6.70623 -6.07223,0 -11.89657,-2.41252 -16.19028,-6.70623 -4.29371,-4.29371 -6.70623,-10.11805 -6.70623,-16.19027 0,-6.07223 2.41252,-11.89657 6.70623,-16.19028 4.29371,-4.29371 10.11805,-6.70623 16.19028,-6.70623 z"
           style="fill:#8c564b;fill-opacity:0.6;fill-rule:nonzero;stroke:#000000;stroke-width:1;stroke-linecap:butt;stroke-linejoin:round;stroke-miterlimit:10;stroke-dasharray:none;stroke-opacity:0.6"
           id="path72" />
      </g>
    </g>
    <g
       id="g74">
      <g
         id="g76"
         clip-path="url(#clipPath80)">
        <path
           d="m 206.89477,355.23463 c 3.89767,0 7.63623,1.54856 10.3923,4.30463 2.75608,2.75608 4.30464,6.49464 4.30464,10.39231 0,3.89767 -1.54856,7.63623 -4.30464,10.3923 -2.75607,2.75608 -6.49463,4.30464 -10.3923,4.30464 -3.89767,0 -7.63623,-1.54856 -10.39231,-4.30464 -2.75607,-2.75607 -4.30463,-6.49463 -4.30463,-10.3923 0,-3.89767 1.54856,-7.63623 4.30463,-10.39231 2.75608,-2.75607 6.49464,-4.30463 10.39231,-4.30463 z"
           style="fill:#e377c2;fill-opacity:0.6;fill-rule:nonzero;stroke:#000000;stroke-width:1;stroke-linecap:butt;stroke-linejoin:round;stroke-miterlimit:10;stroke-dasharray:none;stroke-opacity:0.6"
           id="path82" />
      </g>
    </g>
    <g
       id="g84">
      <g
         id="g86"
         clip-path="url(#clipPath90)">
        <path
           d="m 622.2528,258.52742 c 2.33092,0 4.56669,0.92608 6.2149,2.57429 1.64821,1.64822 2.5743,3.88398 2.5743,6.2149 0,2.33093 -0.92609,4.5667 -2.5743,6.21491 -1.64821,1.64821 -3.88398,2.57429 -6.2149,2.57429 -2.33092,0 -4.56669,-0.92608 -6.2149,-2.57429 -1.64821,-1.64821 -2.5743,-3.88398 -2.5743,-6.21491 0,-2.33092 0.92609,-4.56668 2.5743,-6.2149 1.64821,-1.64821 3.88398,-2.57429 6.2149,-2.57429 z"
           style="fill:#7f7f7f;fill-opacity:0.6;fill-rule:nonzero;stroke:#000000;stroke-width:1;stroke-linecap:butt;stroke-linejoin:round;stroke-miterlimit:10;stroke-dasharray:none;stroke-opacity:0.6"
           id="path92" />
      </g>
    </g>
    <g
       id="g94">
      <g
         id="g96"
         clip-path="url(#clipPath100)">
        <path
           d="m 635.43877,293.02348 c 2.36462,0 4.63272,0.93947 6.30476,2.61151 1.67204,1.67205 2.61152,3.94014 2.61152,6.30476 0,2.36463 -0.93948,4.63272 -2.61152,6.30476 -1.67204,1.67205 -3.94014,2.61152 -6.30476,2.61152 -2.36462,0 -4.63272,-0.93947 -6.30476,-2.61152 -1.67204,-1.67204 -2.61152,-3.94013 -2.61152,-6.30476 0,-2.36462 0.93948,-4.63271 2.61152,-6.30476 1.67204,-1.67204 3.94014,-2.61151 6.30476,-2.61151 z"
           style="fill:#bcbd22;fill-opacity:0.6;fill-rule:nonzero;stroke:#000000;stroke-width:1;stroke-linecap:butt;stroke-linejoin:round;stroke-miterlimit:10;stroke-dasharray:none;stroke-opacity:0.6"
           id="path102" />
      </g>
    </g>
    <g
       id="g104">
      <g
         id="g106"
         clip-path="url(#clipPath110)">
        <path
           d="m 358.53341,692.54129 c 5.00033,0 9.79653,1.98665 13.3323,5.52242 3.53576,3.53576 5.52241,8.33196 5.52241,13.33229 0,5.00033 -1.98665,9.79653 -5.52241,13.33229 -3.53577,3.53577 -8.33197,5.52242 -13.3323,5.52242 -5.00032,0 -9.79652,-1.98665 -13.33229,-5.52242 -3.53576,-3.53576 -5.52241,-8.33196 -5.52241,-13.33229 0,-5.00033 1.98665,-9.79653 5.52241,-13.33229 3.53577,-3.53577 8.33197,-5.52242 13.33229,-5.52242 z"
           style="fill:#17becf;fill-opacity:0.6;fill-rule:nonzero;stroke:#000000;stroke-width:1;stroke-linecap:butt;stroke-linejoin:round;stroke-miterlimit:10;stroke-dasharray:none;stroke-opacity:0.6"
           id="path112" />
      </g>
    </g>
    <g
       id="g114">
      <g
         id="g116"
         clip-path="url(#clipPath120)">
        <path
           d="m 560.27875,429.50434 c 2.83159,0 5.54759,1.125 7.54983,3.12724 2.00224,2.00224 3.12724,4.71824 3.12724,7.54983 0,2.8316 -1.125,5.5476 -3.12724,7.54984 -2.00224,2.00224 -4.71824,3.12724 -7.54983,3.12724 -2.8316,0 -5.5476,-1.125 -7.54984,-3.12724 -2.00224,-2.00224 -3.12724,-4.71824 -3.12724,-7.54984 0,-2.83159 1.125,-5.54759 3.12724,-7.54983 2.00224,-2.00224 4.71824,-3.12724 7.54984,-3.12724 z"
           style="fill:#1f77b4;fill-opacity:0.6;fill-rule:nonzero;stroke:#000000;stroke-width:1;stroke-linecap:butt;stroke-linejoin:round;stroke-miterlimit:10;stroke-dasharray:none;stroke-opacity:0.6"
           id="path122" />
      </g>
    </g>
    <g
       id="g124">
      <g
         id="g126"
         clip-path="url(#clipPath130)">
        <path
           d="m 338.75446,504.77203 c 2.8316,0 5.5476,1.125 7.54984,3.12724 2.00223,2.00224 3.12724,4.71824 3.12724,7.54984 0,2.83159 -1.12501,5.54759 -3.12724,7.54983 -2.00224,2.00224 -4.71824,3.12725 -7.54984,3.12725 -2.83159,0 -5.54759,-1.12501 -7.54983,-3.12725 -2.00224,-2.00224 -3.12725,-4.71824 -3.12725,-7.54983 0,-2.8316 1.12501,-5.5476 3.12725,-7.54984 2.00224,-2.00224 4.71824,-3.12724 7.54983,-3.12724 z"
           style="fill:#ff7f0e;fill-opacity:0.6;fill-rule:nonzero;stroke:#000000;stroke-width:1;stroke-linecap:butt;stroke-linejoin:round;stroke-miterlimit:10;stroke-dasharray:none;stroke-opacity:0.6"
           id="path132" />
      </g>
    </g>
    <g
       id="g134">
      <g
         id="g136"
         clip-path="url(#clipPath140)">
        <path
           d="M 108,108 V 760.32"
           style="fill:none;stroke:#b0b0b0;stroke-width:0.8;stroke-linecap:square;stroke-linejoin:round;stroke-miterlimit:10;stroke-dasharray:none;stroke-opacity:1"
           id="path142" />
      </g>
    </g>
    <g
       id="g144">
      <path
         d="m 108,108 v -3.5"
         style="fill:#000000;fill-opacity:1;fill-rule:nonzero;stroke:#000000;stroke-width:0.8;stroke-linecap:butt;stroke-linejoin:round;stroke-miterlimit:10;stroke-dasharray:none;stroke-opacity:1"
         id="path146" />
      <text
         xml:space="preserve"
         transform="matrix(1,0,0,-1,102.90625,88.84375)"
         style="font-variant:normal;font-weight:normal;font-size:16px;font-family:'DejaVu Sans';-inkscape-font-specification:DejaVuSans;writing-mode:lr-tb;fill:#000000;fill-opacity:1;fill-rule:nonzero;stroke:none"
         id="text150"><tspan
           x="0"
           y="0"
           id="tspan148">0</tspan></text>
    </g>
    <g
       id="g152">
      <g
         id="g154"
         clip-path="url(#clipPath158)">
        <path
           d="M 211.01538,108 V 760.32"
           style="fill:none;stroke:#b0b0b0;stroke-width:0.8;stroke-linecap:square;stroke-linejoin:round;stroke-miterlimit:10;stroke-dasharray:none;stroke-opacity:1"
           id="path160" />
      </g>
    </g>
    <g
       id="g162">
      <path
         d="m 211.01538,108 v -3.5"
         style="fill:#000000;fill-opacity:1;fill-rule:nonzero;stroke:#000000;stroke-width:0.8;stroke-linecap:butt;stroke-linejoin:round;stroke-miterlimit:10;stroke-dasharray:none;stroke-opacity:1"
         id="path164" />
      <text
         xml:space="preserve"
         transform="matrix(1,0,0,-1,200.82788,88.84375)"
         style="font-variant:normal;font-weight:normal;font-size:16px;font-family:'DejaVu Sans';-inkscape-font-specification:DejaVuSans;writing-mode:lr-tb;fill:#000000;fill-opacity:1;fill-rule:nonzero;stroke:none"
         id="text168"><tspan
           x="0 10.176"
           y="0"
           id="tspan166">50</tspan></text>
    </g>
    <g
       id="g170">
      <g
         id="g172"
         clip-path="url(#clipPath176)">
        <path
           d="M 314.03077,108 V 760.32"
           style="fill:none;stroke:#b0b0b0;stroke-width:0.8;stroke-linecap:square;stroke-linejoin:round;stroke-miterlimit:10;stroke-dasharray:none;stroke-opacity:1"
           id="path178" />
      </g>
    </g>
    <g
       id="g180">
      <path
         d="m 314.03077,108 v -3.5"
         style="fill:#000000;fill-opacity:1;fill-rule:nonzero;stroke:#000000;stroke-width:0.8;stroke-linecap:butt;stroke-linejoin:round;stroke-miterlimit:10;stroke-dasharray:none;stroke-opacity:1"
         id="path182" />
      <text
         xml:space="preserve"
         transform="matrix(1,0,0,-1,298.74952,88.84375)"
         style="font-variant:normal;font-weight:normal;font-size:16px;font-family:'DejaVu Sans';-inkscape-font-specification:DejaVuSans;writing-mode:lr-tb;fill:#000000;fill-opacity:1;fill-rule:nonzero;stroke:none"
         id="text186"><tspan
           x="0 10.176 20.351999"
           y="0"
           id="tspan184">100</tspan></text>
    </g>
    <g
       id="g188">
      <g
         id="g190"
         clip-path="url(#clipPath194)">
        <path
           d="M 417.04615,108 V 760.32"
           style="fill:none;stroke:#b0b0b0;stroke-width:0.8;stroke-linecap:square;stroke-linejoin:round;stroke-miterlimit:10;stroke-dasharray:none;stroke-opacity:1"
           id="path196" />
      </g>
    </g>
    <g
       id="g198">
      <path
         d="m 417.04615,108 v -3.5"
         style="fill:#000000;fill-opacity:1;fill-rule:nonzero;stroke:#000000;stroke-width:0.8;stroke-linecap:butt;stroke-linejoin:round;stroke-miterlimit:10;stroke-dasharray:none;stroke-opacity:1"
         id="path200" />
      <text
         xml:space="preserve"
         transform="matrix(1,0,0,-1,401.7649,88.84375)"
         style="font-variant:normal;font-weight:normal;font-size:16px;font-family:'DejaVu Sans';-inkscape-font-specification:DejaVuSans;writing-mode:lr-tb;fill:#000000;fill-opacity:1;fill-rule:nonzero;stroke:none"
         id="text204"><tspan
           x="0 10.176 20.351999"
           y="0"
           id="tspan202">150</tspan></text>
    </g>
    <g
       id="g206">
      <g
         id="g208"
         clip-path="url(#clipPath212)">
        <path
           d="M 520.06154,108 V 760.32"
           style="fill:none;stroke:#b0b0b0;stroke-width:0.8;stroke-linecap:square;stroke-linejoin:round;stroke-miterlimit:10;stroke-dasharray:none;stroke-opacity:1"
           id="path214" />
      </g>
    </g>
    <g
       id="g216">
      <path
         d="m 520.06154,108 v -3.5"
         style="fill:#000000;fill-opacity:1;fill-rule:nonzero;stroke:#000000;stroke-width:0.8;stroke-linecap:butt;stroke-linejoin:round;stroke-miterlimit:10;stroke-dasharray:none;stroke-opacity:1"
         id="path218" />
      <text
         xml:space="preserve"
         transform="matrix(1,0,0,-1,504.78029,88.84375)"
         style="font-variant:normal;font-weight:normal;font-size:16px;font-family:'DejaVu Sans';-inkscape-font-specification:DejaVuSans;writing-mode:lr-tb;fill:#000000;fill-opacity:1;fill-rule:nonzero;stroke:none"
         id="text222"><tspan
           x="0 10.176 20.351999"
           y="0"
           id="tspan220">200</tspan></text>
    </g>
    <g
       id="g224">
      <g
         id="g226"
         clip-path="url(#clipPath230)">
        <path
           d="M 623.07692,108 V 760.32"
           style="fill:none;stroke:#b0b0b0;stroke-width:0.8;stroke-linecap:square;stroke-linejoin:round;stroke-miterlimit:10;stroke-dasharray:none;stroke-opacity:1"
           id="path232" />
      </g>
    </g>
    <g
       id="g234">
      <path
         d="m 623.07692,108 v -3.5"
         style="fill:#000000;fill-opacity:1;fill-rule:nonzero;stroke:#000000;stroke-width:0.8;stroke-linecap:butt;stroke-linejoin:round;stroke-miterlimit:10;stroke-dasharray:none;stroke-opacity:1"
         id="path236" />
      <text
         xml:space="preserve"
         transform="matrix(1,0,0,-1,607.79567,88.84375)"
         style="font-variant:normal;font-weight:normal;font-size:16px;font-family:'DejaVu Sans';-inkscape-font-specification:DejaVuSans;writing-mode:lr-tb;fill:#000000;fill-opacity:1;fill-rule:nonzero;stroke:none"
         id="text240"><tspan
           x="0 10.176 20.351999"
           y="0"
           id="tspan238">250</tspan></text>
    </g>
    <g
       id="g242">
      <g
         id="g244"
         clip-path="url(#clipPath248)">
        <path
           d="M 726.09231,108 V 760.32"
           style="fill:none;stroke:#b0b0b0;stroke-width:0.8;stroke-linecap:square;stroke-linejoin:round;stroke-miterlimit:10;stroke-dasharray:none;stroke-opacity:1"
           id="path250" />
      </g>
    </g>
    <g
       id="g252">
      <path
         d="m 726.09231,108 v -3.5"
         style="fill:#000000;fill-opacity:1;fill-rule:nonzero;stroke:#000000;stroke-width:0.8;stroke-linecap:butt;stroke-linejoin:round;stroke-miterlimit:10;stroke-dasharray:none;stroke-opacity:1"
         id="path254" />
      <text
         xml:space="preserve"
         transform="matrix(1,0,0,-1,710.81106,88.84375)"
         style="font-variant:normal;font-weight:normal;font-size:16px;font-family:'DejaVu Sans';-inkscape-font-specification:DejaVuSans;writing-mode:lr-tb;fill:#000000;fill-opacity:1;fill-rule:nonzero;stroke:none"
         id="text258"><tspan
           x="0 10.176 20.351999"
           y="0"
           id="tspan256">300</tspan></text>
      <text
         xml:space="preserve"
         transform="matrix(1,0,0,-1,273.03437,61.765625)"
         style="font-variant:normal;font-weight:normal;font-size:26px;font-family:'DejaVu Sans';-inkscape-font-specification:DejaVuSans;writing-mode:lr-tb;fill:#000000;fill-opacity:1;fill-rule:nonzero;stroke:none"
         id="text262"><tspan
           x="0 16.51 33.02 49.009998 65 81.510002 89.778 99.917999 115.908 131.3 147.23801 172.562 189.07201 196.3 212.28999 225.836 234.104 250.614 266.604 277.29001 285.55801 299.104 315.09399 329.39401"
           y="0"
           id="tspan260">Speed (examples per sec)</tspan></text>
    </g>
    <g
       id="g264">
      <g
         id="g266"
         clip-path="url(#clipPath270)">
        <path
           d="M 108,108 H 777.6"
           style="fill:none;stroke:#b0b0b0;stroke-width:0.8;stroke-linecap:square;stroke-linejoin:round;stroke-miterlimit:10;stroke-dasharray:none;stroke-opacity:1"
           id="path272" />
      </g>
    </g>
    <g
       id="g274">
      <path
         d="m 108,108 h -3.5"
         style="fill:#000000;fill-opacity:1;fill-rule:nonzero;stroke:#000000;stroke-width:0.8;stroke-linecap:butt;stroke-linejoin:round;stroke-miterlimit:10;stroke-dasharray:none;stroke-opacity:1"
         id="path276" />
      <text
         xml:space="preserve"
         transform="matrix(1,0,0,-1,80.625,101.92188)"
         style="font-variant:normal;font-weight:normal;font-size:16px;font-family:'DejaVu Sans';-inkscape-font-specification:DejaVuSans;writing-mode:lr-tb;fill:#000000;fill-opacity:1;fill-rule:nonzero;stroke:none"
         id="text280"><tspan
           x="0 10.176"
           y="0"
           id="tspan278">48</tspan></text>
    </g>
    <g
       id="g282">
      <g
         id="g284"
         clip-path="url(#clipPath288)">
        <path
           d="M 108,183.26769 H 777.6"
           style="fill:none;stroke:#b0b0b0;stroke-width:0.8;stroke-linecap:square;stroke-linejoin:round;stroke-miterlimit:10;stroke-dasharray:none;stroke-opacity:1"
           id="path290" />
      </g>
    </g>
    <g
       id="g292">
      <path
         d="m 108,183.26769 h -3.5"
         style="fill:#000000;fill-opacity:1;fill-rule:nonzero;stroke:#000000;stroke-width:0.8;stroke-linecap:butt;stroke-linejoin:round;stroke-miterlimit:10;stroke-dasharray:none;stroke-opacity:1"
         id="path294" />
      <text
         xml:space="preserve"
         transform="matrix(1,0,0,-1,80.625,177.18957)"
         style="font-variant:normal;font-weight:normal;font-size:16px;font-family:'DejaVu Sans';-inkscape-font-specification:DejaVuSans;writing-mode:lr-tb;fill:#000000;fill-opacity:1;fill-rule:nonzero;stroke:none"
         id="text298"><tspan
           x="0 10.176"
           y="0"
           id="tspan296">51</tspan></text>
    </g>
    <g
       id="g300">
      <g
         id="g302"
         clip-path="url(#clipPath306)">
        <path
           d="M 108,258.53538 H 777.6"
           style="fill:none;stroke:#b0b0b0;stroke-width:0.8;stroke-linecap:square;stroke-linejoin:round;stroke-miterlimit:10;stroke-dasharray:none;stroke-opacity:1"
           id="path308" />
      </g>
    </g>
    <g
       id="g310">
      <path
         d="m 108,258.53538 h -3.5"
         style="fill:#000000;fill-opacity:1;fill-rule:nonzero;stroke:#000000;stroke-width:0.8;stroke-linecap:butt;stroke-linejoin:round;stroke-miterlimit:10;stroke-dasharray:none;stroke-opacity:1"
         id="path312" />
      <text
         xml:space="preserve"
         transform="matrix(1,0,0,-1,80.625,252.45726)"
         style="font-variant:normal;font-weight:normal;font-size:16px;font-family:'DejaVu Sans';-inkscape-font-specification:DejaVuSans;writing-mode:lr-tb;fill:#000000;fill-opacity:1;fill-rule:nonzero;stroke:none"
         id="text316"><tspan
           x="0 10.176"
           y="0"
           id="tspan314">54</tspan></text>
    </g>
    <g
       id="g318">
      <g
         id="g320"
         clip-path="url(#clipPath324)">
        <path
           d="M 108,333.80308 H 777.6"
           style="fill:none;stroke:#b0b0b0;stroke-width:0.8;stroke-linecap:square;stroke-linejoin:round;stroke-miterlimit:10;stroke-dasharray:none;stroke-opacity:1"
           id="path326" />
      </g>
    </g>
    <g
       id="g328">
      <path
         d="m 108,333.80308 h -3.5"
         style="fill:#000000;fill-opacity:1;fill-rule:nonzero;stroke:#000000;stroke-width:0.8;stroke-linecap:butt;stroke-linejoin:round;stroke-miterlimit:10;stroke-dasharray:none;stroke-opacity:1"
         id="path330" />
      <text
         xml:space="preserve"
         transform="matrix(1,0,0,-1,80.625,327.72495)"
         style="font-variant:normal;font-weight:normal;font-size:16px;font-family:'DejaVu Sans';-inkscape-font-specification:DejaVuSans;writing-mode:lr-tb;fill:#000000;fill-opacity:1;fill-rule:nonzero;stroke:none"
         id="text334"><tspan
           x="0 10.176"
           y="0"
           id="tspan332">57</tspan></text>
    </g>
    <g
       id="g336">
      <g
         id="g338"
         clip-path="url(#clipPath342)">
        <path
           d="M 108,409.07077 H 777.6"
           style="fill:none;stroke:#b0b0b0;stroke-width:0.8;stroke-linecap:square;stroke-linejoin:round;stroke-miterlimit:10;stroke-dasharray:none;stroke-opacity:1"
           id="path344" />
      </g>
    </g>
    <g
       id="g346">
      <path
         d="m 108,409.07077 h -3.5"
         style="fill:#000000;fill-opacity:1;fill-rule:nonzero;stroke:#000000;stroke-width:0.8;stroke-linecap:butt;stroke-linejoin:round;stroke-miterlimit:10;stroke-dasharray:none;stroke-opacity:1"
         id="path348" />
      <text
         xml:space="preserve"
         transform="matrix(1,0,0,-1,80.625,402.99264)"
         style="font-variant:normal;font-weight:normal;font-size:16px;font-family:'DejaVu Sans';-inkscape-font-specification:DejaVuSans;writing-mode:lr-tb;fill:#000000;fill-opacity:1;fill-rule:nonzero;stroke:none"
         id="text352"><tspan
           x="0 10.176"
           y="0"
           id="tspan350">60</tspan></text>
    </g>
    <g
       id="g354">
      <g
         id="g356"
         clip-path="url(#clipPath360)">
        <path
           d="M 108,484.33846 H 777.6"
           style="fill:none;stroke:#b0b0b0;stroke-width:0.8;stroke-linecap:square;stroke-linejoin:round;stroke-miterlimit:10;stroke-dasharray:none;stroke-opacity:1"
           id="path362" />
      </g>
    </g>
    <g
       id="g364">
      <path
         d="m 108,484.33846 h -3.5"
         style="fill:#000000;fill-opacity:1;fill-rule:nonzero;stroke:#000000;stroke-width:0.8;stroke-linecap:butt;stroke-linejoin:round;stroke-miterlimit:10;stroke-dasharray:none;stroke-opacity:1"
         id="path366" />
      <text
         xml:space="preserve"
         transform="matrix(1,0,0,-1,80.625,478.26034)"
         style="font-variant:normal;font-weight:normal;font-size:16px;font-family:'DejaVu Sans';-inkscape-font-specification:DejaVuSans;writing-mode:lr-tb;fill:#000000;fill-opacity:1;fill-rule:nonzero;stroke:none"
         id="text370"><tspan
           x="0 10.176"
           y="0"
           id="tspan368">63</tspan></text>
    </g>
    <g
       id="g372">
      <g
         id="g374"
         clip-path="url(#clipPath378)">
        <path
           d="M 108,559.60615 H 777.6"
           style="fill:none;stroke:#b0b0b0;stroke-width:0.8;stroke-linecap:square;stroke-linejoin:round;stroke-miterlimit:10;stroke-dasharray:none;stroke-opacity:1"
           id="path380" />
      </g>
    </g>
    <g
       id="g382">
      <path
         d="m 108,559.60615 h -3.5"
         style="fill:#000000;fill-opacity:1;fill-rule:nonzero;stroke:#000000;stroke-width:0.8;stroke-linecap:butt;stroke-linejoin:round;stroke-miterlimit:10;stroke-dasharray:none;stroke-opacity:1"
         id="path384" />
      <text
         xml:space="preserve"
         transform="matrix(1,0,0,-1,80.625,553.52803)"
         style="font-variant:normal;font-weight:normal;font-size:16px;font-family:'DejaVu Sans';-inkscape-font-specification:DejaVuSans;writing-mode:lr-tb;fill:#000000;fill-opacity:1;fill-rule:nonzero;stroke:none"
         id="text388"><tspan
           x="0 10.176"
           y="0"
           id="tspan386">66</tspan></text>
    </g>
    <g
       id="g390">
      <g
         id="g392"
         clip-path="url(#clipPath396)">
        <path
           d="M 108,634.87385 H 777.6"
           style="fill:none;stroke:#b0b0b0;stroke-width:0.8;stroke-linecap:square;stroke-linejoin:round;stroke-miterlimit:10;stroke-dasharray:none;stroke-opacity:1"
           id="path398" />
      </g>
    </g>
    <g
       id="g400">
      <path
         d="m 108,634.87385 h -3.5"
         style="fill:#000000;fill-opacity:1;fill-rule:nonzero;stroke:#000000;stroke-width:0.8;stroke-linecap:butt;stroke-linejoin:round;stroke-miterlimit:10;stroke-dasharray:none;stroke-opacity:1"
         id="path402" />
      <text
         xml:space="preserve"
         transform="matrix(1,0,0,-1,80.625,628.79572)"
         style="font-variant:normal;font-weight:normal;font-size:16px;font-family:'DejaVu Sans';-inkscape-font-specification:DejaVuSans;writing-mode:lr-tb;fill:#000000;fill-opacity:1;fill-rule:nonzero;stroke:none"
         id="text406"><tspan
           x="0 10.176"
           y="0"
           id="tspan404">69</tspan></text>
    </g>
    <g
       id="g408">
      <g
         id="g410"
         clip-path="url(#clipPath414)">
        <path
           d="M 108,710.14154 H 777.6"
           style="fill:none;stroke:#b0b0b0;stroke-width:0.8;stroke-linecap:square;stroke-linejoin:round;stroke-miterlimit:10;stroke-dasharray:none;stroke-opacity:1"
           id="path416" />
      </g>
    </g>
    <g
       id="g418">
      <path
         d="m 108,710.14154 h -3.5"
         style="fill:#000000;fill-opacity:1;fill-rule:nonzero;stroke:#000000;stroke-width:0.8;stroke-linecap:butt;stroke-linejoin:round;stroke-miterlimit:10;stroke-dasharray:none;stroke-opacity:1"
         id="path420" />
      <text
         xml:space="preserve"
         transform="matrix(1,0,0,-1,80.625,704.06341)"
         style="font-variant:normal;font-weight:normal;font-size:16px;font-family:'DejaVu Sans';-inkscape-font-specification:DejaVuSans;writing-mode:lr-tb;fill:#000000;fill-opacity:1;fill-rule:nonzero;stroke:none"
         id="text424"><tspan
           x="0 10.176"
           y="0"
           id="tspan422">72</tspan></text>
      <text
         xml:space="preserve"
         transform="matrix(0,1,1,0,71.21875,368.17563)"
         style="font-variant:normal;font-weight:normal;font-size:26px;font-family:'DejaVu Sans';-inkscape-font-specification:DejaVuSans;writing-mode:lr-tb;fill:#000000;fill-opacity:1;fill-rule:nonzero;stroke:none"
         id="text428"><tspan
           x="0 14.482 32.551998 50.335999 58.604 75.113998 89.414001 105.326 116.012"
           y="0"
           id="tspan426">LRA Score</tspan></text>
      <path
         d="M 108,108 V 760.32"
         style="fill:none;stroke:#000000;stroke-width:0.8;stroke-linecap:square;stroke-linejoin:miter;stroke-miterlimit:10;stroke-dasharray:none;stroke-opacity:1"
         id="path430" />
      <path
         d="M 777.6,108 V 760.32"
         style="fill:none;stroke:#000000;stroke-width:0.8;stroke-linecap:square;stroke-linejoin:miter;stroke-miterlimit:10;stroke-dasharray:none;stroke-opacity:1"
         id="path432" />
      <path
         d="M 108,108 H 777.6"
         style="fill:none;stroke:#000000;stroke-width:0.8;stroke-linecap:square;stroke-linejoin:miter;stroke-miterlimit:10;stroke-dasharray:none;stroke-opacity:1"
         id="path434" />
      <path
         d="M 108,760.32 H 777.6"
         style="fill:none;stroke:#000000;stroke-width:0.8;stroke-linecap:square;stroke-linejoin:miter;stroke-miterlimit:10;stroke-dasharray:none;stroke-opacity:1"
         id="path436" />
      <text
         xml:space="preserve"
         transform="matrix(1,0,0,-1,159.09563,423.37163)"
         style="font-variant:normal;font-weight:normal;font-size:20px;font-family:'DejaVu Sans';-inkscape-font-specification:DejaVuSans;writing-mode:lr-tb;fill:#000000;fill-opacity:1;fill-rule:nonzero;stroke:none"
         id="text440"><tspan
           x="0 12.22 20.440001 32.700001 45.380001 55.799999 62.84 75.080002 83.300003 102.78 115.08"
           y="0"
           id="tspan438">Transformer</tspan></text>
      <text
         xml:space="preserve"
         transform="matrix(1,0,0,-1,544.37317,158.42935)"
         style="font-variant:normal;font-weight:normal;font-size:20px;font-family:'DejaVu Sans';-inkscape-font-specification:DejaVuSans;writing-mode:lr-tb;fill:#000000;fill-opacity:1;fill-rule:nonzero;stroke:none"
         id="text444"><tspan
           x="0 11.14 23.379999 34.380001 46.639999 52.200001 58.560001 72.239998 80.080002 87.919998 100.22 112.9 120.74 126.3 138.53999"
           y="0"
           id="tspan442">Local Attention</tspan></text>
      <text
         xml:space="preserve"
         transform="matrix(1,0,0,-1,512.64443,325.52363)"
         style="font-variant:normal;font-weight:normal;font-size:20px;font-family:'DejaVu Sans';-inkscape-font-specification:DejaVuSans;writing-mode:lr-tb;fill:#000000;fill-opacity:1;fill-rule:nonzero;stroke:none"
         id="text448"><tspan
           x="0 11.14 16.700001 29.379999 36.419998 48.66 56.880001 76.360001 88.660004"
           y="0"
           id="tspan446">Linformer</tspan></text>
      <text
         xml:space="preserve"
         transform="matrix(1,0,0,-1,194.94498,273.33803)"
         style="font-variant:normal;font-weight:normal;font-size:20px;font-family:'DejaVu Sans';-inkscape-font-specification:DejaVuSans;writing-mode:lr-tb;fill:#000000;fill-opacity:1;fill-rule:nonzero;stroke:none"
         id="text452"><tspan
           x="0 13.9 26.200001 33.240002 45.48 53.700001 73.18 85.480003"
           y="0"
           id="tspan450">Reformer</tspan></text>
      <text
         xml:space="preserve"
         transform="matrix(1,0,0,-1,395.61895,230.68634)"
         style="font-variant:normal;font-weight:normal;font-size:20px;font-family:'DejaVu Sans';-inkscape-font-specification:DejaVuSans;writing-mode:lr-tb;fill:#000000;fill-opacity:1;fill-rule:nonzero;stroke:none"
         id="text456"><tspan
           x="0 12.7 18.26 30.940001 42.52 55.200001 67.440002 75.660004 88.339996 94.699997 106.92 115.14 127.4 140.08 150.5"
           y="0"
           id="tspan454">Sinkhorn Trans.</tspan></text>
      <text
         xml:space="preserve"
         transform="matrix(1,0,0,-1,264.17132,357.63785)"
         style="font-variant:normal;font-weight:normal;font-size:20px;font-family:'DejaVu Sans';-inkscape-font-specification:DejaVuSans;writing-mode:lr-tb;fill:#000000;fill-opacity:1;fill-rule:nonzero;stroke:none"
         id="text460"><tspan
           x="0 12.7 24.540001 37.220001 45.060001 57.740002 70.040001 80.459999 86.019997 96.519997 108.82"
           y="0"
           id="tspan458">Synthesizer</tspan></text>
      <text
         xml:space="preserve"
         transform="matrix(1,0,0,-1,227.49785,382.47618)"
         style="font-variant:normal;font-weight:normal;font-size:20px;font-family:'DejaVu Sans';-inkscape-font-specification:DejaVuSans;writing-mode:lr-tb;fill:#000000;fill-opacity:1;fill-rule:nonzero;stroke:none"
         id="text464"><tspan
           x="0 13.72 19.280001 31.98 45.700001 51.259998 59.48"
           y="0"
           id="tspan462">BigBird</tspan></text>
      <text
         xml:space="preserve"
         transform="matrix(1,0,0,-1,581.04665,242.22738)"
         style="font-variant:normal;font-weight:normal;font-size:20px;font-family:'DejaVu Sans';-inkscape-font-specification:DejaVuSans;writing-mode:lr-tb;fill:#000000;fill-opacity:1;fill-rule:nonzero;stroke:none"
         id="text468"><tspan
           x="0 11.14 16.700001 29.379999 41.68 53.939999 62.16 68.519997 80.739998 88.959999 101.22 113.9 124.32"
           y="0"
           id="tspan466">Linear Trans.</tspan></text>
      <text
         xml:space="preserve"
         transform="matrix(1,0,0,-1,635.43877,314.48437)"
         style="font-variant:normal;font-weight:normal;font-size:20px;font-family:'DejaVu Sans';-inkscape-font-specification:DejaVuSans;writing-mode:lr-tb;fill:#000000;fill-opacity:1;fill-rule:nonzero;stroke:none"
         id="text472"><tspan
           x="0 12.06 24.360001 32.580002 39.619999 51.860001 60.080002 79.559998 91.860001"
           y="0"
           id="tspan470">Performer</tspan></text>
      <text
         xml:space="preserve"
         transform="matrix(1,0,0,-1,379.13649,711.396)"
         style="font-variant:normal;font-weight:normal;font-size:20px;font-family:'DejaVu Sans';-inkscape-font-specification:DejaVuSans;writing-mode:lr-tb;fill:#000000;fill-opacity:1;fill-rule:nonzero;stroke:none"
         id="text476"><tspan
           x="0 13.68 19.58 33.299999 40.52 55.48 67.779999"
           y="0"
           id="tspan474">AIB-Net</tspan></text>
      <text
         xml:space="preserve"
         transform="matrix(1,0,0,-1,580.88182,440.18142)"
         style="font-variant:normal;font-weight:normal;font-size:20px;font-family:'DejaVu Sans';-inkscape-font-specification:DejaVuSans;writing-mode:lr-tb;fill:#000000;fill-opacity:1;fill-rule:nonzero;stroke:none"
         id="text480"><tspan
           x="0 11.14 23.82 36.5 48.759998 55.98 68.699997 81.419998"
           y="0"
           id="tspan478">Luna-256</tspan></text>
      <text
         xml:space="preserve"
         transform="matrix(1,0,0,-1,359.35754,515.44911)"
         style="font-variant:normal;font-weight:normal;font-size:20px;font-family:'DejaVu Sans';-inkscape-font-specification:DejaVuSans;writing-mode:lr-tb;fill:#000000;fill-opacity:1;fill-rule:nonzero;stroke:none"
         id="text484"><tspan
           x="0 11.5 25.18 37.880001"
           y="0"
           id="tspan482">FAST</tspan></text>
    </g>
  </g>
</svg>
