<?xml version="1.0" encoding="UTF-8" standalone="no"?>
<!-- Created with Inkscape (http://www.inkscape.org/) -->

<svg
   version="1.1"
   id="svg2"
   width="977.42346"
   height="968.83667"
   viewBox="0 0 977.42346 968.83667"
   xmlns="http://www.w3.org/2000/svg"
   xmlns:svg="http://www.w3.org/2000/svg">
  <defs
     id="defs6">
    <clipPath
       clipPathUnits="userSpaceOnUse"
       id="clipPath20">
      <path
         d="M 108,95.04 H 777.6 V 760.32 H 108 Z"
         id="path18" />
    </clipPath>
    <clipPath
       clipPathUnits="userSpaceOnUse"
       id="clipPath30">
      <path
         d="M 108,95.04 H 777.6 V 760.32 H 108 Z"
         id="path28" />
    </clipPath>
    <clipPath
       clipPathUnits="userSpaceOnUse"
       id="clipPath40">
      <path
         d="M 108,95.04 H 777.6 V 760.32 H 108 Z"
         id="path38" />
    </clipPath>
    <clipPath
       clipPathUnits="userSpaceOnUse"
       id="clipPath50">
      <path
         d="M 108,95.04 H 777.6 V 760.32 H 108 Z"
         id="path48" />
    </clipPath>
    <clipPath
       clipPathUnits="userSpaceOnUse"
       id="clipPath60">
      <path
         d="M 108,95.04 H 777.6 V 760.32 H 108 Z"
         id="path58" />
    </clipPath>
    <clipPath
       clipPathUnits="userSpaceOnUse"
       id="clipPath70">
      <path
         d="M 108,95.04 H 777.6 V 760.32 H 108 Z"
         id="path68" />
    </clipPath>
    <clipPath
       clipPathUnits="userSpaceOnUse"
       id="clipPath80">
      <path
         d="M 108,95.04 H 777.6 V 760.32 H 108 Z"
         id="path78" />
    </clipPath>
    <clipPath
       clipPathUnits="userSpaceOnUse"
       id="clipPath90">
      <path
         d="M 108,95.04 H 777.6 V 760.32 H 108 Z"
         id="path88" />
    </clipPath>
    <clipPath
       clipPathUnits="userSpaceOnUse"
       id="clipPath100">
      <path
         d="M 108,95.04 H 777.6 V 760.32 H 108 Z"
         id="path98" />
    </clipPath>
    <clipPath
       clipPathUnits="userSpaceOnUse"
       id="clipPath110">
      <path
         d="M 108,95.04 H 777.6 V 760.32 H 108 Z"
         id="path108" />
    </clipPath>
    <clipPath
       clipPathUnits="userSpaceOnUse"
       id="clipPath120">
      <path
         d="M 108,95.04 H 777.6 V 760.32 H 108 Z"
         id="path118" />
    </clipPath>
    <clipPath
       clipPathUnits="userSpaceOnUse"
       id="clipPath130">
      <path
         d="M 108,95.04 H 777.6 V 760.32 H 108 Z"
         id="path128" />
    </clipPath>
    <clipPath
       clipPathUnits="userSpaceOnUse"
       id="clipPath140">
      <path
         d="M 108,95.04 H 777.6 V 760.32 H 108 Z"
         id="path138" />
    </clipPath>
    <clipPath
       clipPathUnits="userSpaceOnUse"
       id="clipPath160">
      <path
         d="M 108,95.04 H 777.6 V 760.32 H 108 Z"
         id="path158" />
    </clipPath>
    <clipPath
       clipPathUnits="userSpaceOnUse"
       id="clipPath180">
      <path
         d="M 108,95.04 H 777.6 V 760.32 H 108 Z"
         id="path178" />
    </clipPath>
    <clipPath
       clipPathUnits="userSpaceOnUse"
       id="clipPath200">
      <path
         d="M 108,95.04 H 777.6 V 760.32 H 108 Z"
         id="path198" />
    </clipPath>
    <clipPath
       clipPathUnits="userSpaceOnUse"
       id="clipPath220">
      <path
         d="M 108,95.04 H 777.6 V 760.32 H 108 Z"
         id="path218" />
    </clipPath>
    <clipPath
       clipPathUnits="userSpaceOnUse"
       id="clipPath240">
      <path
         d="M 108,95.04 H 777.6 V 760.32 H 108 Z"
         id="path238" />
    </clipPath>
    <clipPath
       clipPathUnits="userSpaceOnUse"
       id="clipPath260">
      <path
         d="M 108,95.04 H 777.6 V 760.32 H 108 Z"
         id="path258" />
    </clipPath>
    <clipPath
       clipPathUnits="userSpaceOnUse"
       id="clipPath286">
      <path
         d="M 108,95.04 H 777.6 V 760.32 H 108 Z"
         id="path284" />
    </clipPath>
    <clipPath
       clipPathUnits="userSpaceOnUse"
       id="clipPath306">
      <path
         d="M 108,95.04 H 777.6 V 760.32 H 108 Z"
         id="path304" />
    </clipPath>
    <clipPath
       clipPathUnits="userSpaceOnUse"
       id="clipPath326">
      <path
         d="M 108,95.04 H 777.6 V 760.32 H 108 Z"
         id="path324" />
    </clipPath>
    <clipPath
       clipPathUnits="userSpaceOnUse"
       id="clipPath346">
      <path
         d="M 108,95.04 H 777.6 V 760.32 H 108 Z"
         id="path344" />
    </clipPath>
    <clipPath
       clipPathUnits="userSpaceOnUse"
       id="clipPath366">
      <path
         d="M 108,95.04 H 777.6 V 760.32 H 108 Z"
         id="path364" />
    </clipPath>
    <clipPath
       clipPathUnits="userSpaceOnUse"
       id="clipPath386">
      <path
         d="M 108,95.04 H 777.6 V 760.32 H 108 Z"
         id="path384" />
    </clipPath>
    <clipPath
       clipPathUnits="userSpaceOnUse"
       id="clipPath406">
      <path
         d="M 108,95.04 H 777.6 V 760.32 H 108 Z"
         id="path404" />
    </clipPath>
    <clipPath
       clipPathUnits="userSpaceOnUse"
       id="clipPath426">
      <path
         d="M 108,95.04 H 777.6 V 760.32 H 108 Z"
         id="path424" />
    </clipPath>
    <clipPath
       clipPathUnits="userSpaceOnUse"
       id="clipPath446">
      <path
         d="M 108,95.04 H 777.6 V 760.32 H 108 Z"
         id="path444" />
    </clipPath>
  </defs>
  <g
     id="g8"
     transform="matrix(1.3333333,0,0,-1.3333333,-62.9672,1020.3413)">
    <path
       d="M 0,0 H 864 V 864 H 0 Z"
       style="fill:#ffffff;fill-opacity:1;fill-rule:nonzero;stroke:none"
       id="path10" />
    <path
       d="M 108,95.04 H 777.6 V 760.32 H 108 Z"
       style="fill:#ffffff;fill-opacity:1;fill-rule:nonzero;stroke:none"
       id="path12" />
    <g
       id="g14">
      <g
         id="g16"
         clip-path="url(#clipPath20)">
        <path
           d="m 200.30178,338.83732 c 7.07153,0 13.85438,2.80955 18.85471,7.80988 5.00033,5.00033 7.80988,11.78318 7.80988,18.85471 0,7.07153 -2.80955,13.85438 -7.80988,18.8547 -5.00033,5.00033 -11.78318,7.80988 -18.85471,7.80988 -7.07153,0 -13.85438,-2.80955 -18.8547,-7.80988 -5.00033,-5.00032 -7.80988,-11.78317 -7.80988,-18.8547 0,-7.07153 2.80955,-13.85438 7.80988,-18.85471 5.00032,-5.00033 11.78317,-7.80988 18.8547,-7.80988 z"
           style="fill:#1f77b4;fill-opacity:0.6;fill-rule:nonzero;stroke:#000000;stroke-width:1;stroke-linecap:butt;stroke-linejoin:round;stroke-miterlimit:10;stroke-dasharray:none;stroke-opacity:0.6"
           id="path22" />
      </g>
    </g>
    <g
       id="g24">
      <g
         id="g26"
         clip-path="url(#clipPath30)">
        <path
           d="m 595.88086,123.54085 c 2.68825,0 5.26676,1.06805 7.16764,2.96893 1.90088,1.90088 2.96893,4.47939 2.96893,7.16763 0,2.68825 -1.06805,5.26676 -2.96893,7.16764 -1.90088,1.90088 -4.47939,2.96893 -7.16764,2.96893 -2.68825,0 -5.26676,-1.06805 -7.16763,-2.96893 -1.90088,-1.90088 -2.96894,-4.47939 -2.96894,-7.16764 0,-2.68824 1.06806,-5.26675 2.96894,-7.16763 1.90087,-1.90088 4.47938,-2.96893 7.16763,-2.96893 z"
           style="fill:#ff7f0e;fill-opacity:0.6;fill-rule:nonzero;stroke:#000000;stroke-width:1;stroke-linecap:butt;stroke-linejoin:round;stroke-miterlimit:10;stroke-dasharray:none;stroke-opacity:0.6"
           id="path32" />
      </g>
    </g>
    <g
       id="g34">
      <g
         id="g36"
         clip-path="url(#clipPath40)">
        <path
           d="m 615.65981,303.15091 c 2.28522,0 4.47714,0.90792 6.09303,2.52382 1.61589,1.61588 2.52382,3.80781 2.52382,6.09302 0,2.28522 -0.90793,4.47714 -2.52382,6.09303 -1.61589,1.61589 -3.80781,2.52382 -6.09303,2.52382 -2.28521,0 -4.47713,-0.90793 -6.09302,-2.52382 -1.61589,-1.61589 -2.52382,-3.80781 -2.52382,-6.09303 0,-2.28521 0.90793,-4.47714 2.52382,-6.09302 1.61589,-1.6159 3.80781,-2.52382 6.09302,-2.52382 z"
           style="fill:#2ca02c;fill-opacity:0.6;fill-rule:nonzero;stroke:#000000;stroke-width:1;stroke-linecap:butt;stroke-linejoin:round;stroke-miterlimit:10;stroke-dasharray:none;stroke-opacity:0.6"
           id="path42" />
      </g>
    </g>
    <g
       id="g44">
      <g
         id="g46"
         clip-path="url(#clipPath50)">
        <path
           d="m 180.52283,250.58619 c 3.46798,0 6.79439,1.37785 9.24662,3.83008 2.45223,2.45223 3.83008,5.77864 3.83008,9.24662 0,3.46798 -1.37785,6.79439 -3.83008,9.24662 -2.45223,2.45224 -5.77864,3.83008 -9.24662,3.83008 -3.46798,0 -6.79439,-1.37784 -9.24662,-3.83008 -2.45223,-2.45223 -3.83008,-5.77864 -3.83008,-9.24662 0,-3.46798 1.37785,-6.79439 3.83008,-9.24662 2.45223,-2.45223 5.77864,-3.83008 9.24662,-3.83008 z"
           style="fill:#d62728;fill-opacity:0.6;fill-rule:nonzero;stroke:#000000;stroke-width:1;stroke-linecap:butt;stroke-linejoin:round;stroke-miterlimit:10;stroke-dasharray:none;stroke-opacity:0.6"
           id="path52" />
      </g>
    </g>
    <g
       id="g54">
      <g
         id="g56"
         clip-path="url(#clipPath60)">
        <path
           d="m 457.42818,235.21585 c 2.79409,0 5.47412,1.11011 7.44984,3.08582 1.97571,1.97572 3.08582,4.65575 3.08582,7.44984 0,2.79409 -1.11011,5.47411 -3.08582,7.44983 -1.97572,1.97572 -4.65575,3.08582 -7.44984,3.08582 -2.79408,0 -5.47411,-1.1101 -7.44983,-3.08582 -1.97572,-1.97572 -3.08582,-4.65574 -3.08582,-7.44983 0,-2.79409 1.1101,-5.47412 3.08582,-7.44984 1.97572,-1.97571 4.65575,-3.08582 7.44983,-3.08582 z"
           style="fill:#9467bd;fill-opacity:0.6;fill-rule:nonzero;stroke:#000000;stroke-width:1;stroke-linecap:butt;stroke-linejoin:round;stroke-miterlimit:10;stroke-dasharray:none;stroke-opacity:0.6"
           id="path62" />
      </g>
    </g>
    <g
       id="g64">
      <g
         id="g66"
         clip-path="url(#clipPath70)">
        <path
           d="m 233.26671,326.74103 c 6.07222,0 11.89656,2.41252 16.19027,6.70623 4.29371,4.29371 6.70623,10.11805 6.70623,16.19028 0,6.07222 -2.41252,11.89656 -6.70623,16.19027 -4.29371,4.29371 -10.11805,6.70623 -16.19027,6.70623 -6.07223,0 -11.89657,-2.41252 -16.19028,-6.70623 -4.29371,-4.29371 -6.70623,-10.11805 -6.70623,-16.19027 0,-6.07223 2.41252,-11.89657 6.70623,-16.19028 4.29371,-4.29371 10.11805,-6.70623 16.19028,-6.70623 z"
           style="fill:#8c564b;fill-opacity:0.6;fill-rule:nonzero;stroke:#000000;stroke-width:1;stroke-linecap:butt;stroke-linejoin:round;stroke-miterlimit:10;stroke-dasharray:none;stroke-opacity:0.6"
           id="path72" />
      </g>
    </g>
    <g
       id="g74">
      <g
         id="g76"
         clip-path="url(#clipPath80)">
        <path
           d="m 206.89477,347.47857 c 3.89767,0 7.63623,1.54856 10.3923,4.30463 2.75608,2.75607 4.30464,6.49463 4.30464,10.39231 0,3.89767 -1.54856,7.63623 -4.30464,10.3923 -2.75607,2.75607 -6.49463,4.30464 -10.3923,4.30464 -3.89767,0 -7.63623,-1.54857 -10.39231,-4.30464 -2.75607,-2.75607 -4.30463,-6.49463 -4.30463,-10.3923 0,-3.89768 1.54856,-7.63624 4.30463,-10.39231 2.75608,-2.75607 6.49464,-4.30463 10.39231,-4.30463 z"
           style="fill:#e377c2;fill-opacity:0.6;fill-rule:nonzero;stroke:#000000;stroke-width:1;stroke-linecap:butt;stroke-linejoin:round;stroke-miterlimit:10;stroke-dasharray:none;stroke-opacity:0.6"
           id="path82" />
      </g>
    </g>
    <g
       id="g84">
      <g
         id="g86"
         clip-path="url(#clipPath90)">
        <path
           d="m 622.2528,248.73265 c 2.33092,0 4.56669,0.92608 6.2149,2.5743 1.64821,1.64821 2.5743,3.88397 2.5743,6.2149 0,2.33092 -0.92609,4.56669 -2.5743,6.2149 -1.64821,1.64821 -3.88398,2.57429 -6.2149,2.57429 -2.33092,0 -4.56669,-0.92608 -6.2149,-2.57429 -1.64821,-1.64821 -2.5743,-3.88398 -2.5743,-6.2149 0,-2.33093 0.92609,-4.56669 2.5743,-6.2149 1.64821,-1.64822 3.88398,-2.5743 6.2149,-2.5743 z"
           style="fill:#7f7f7f;fill-opacity:0.6;fill-rule:nonzero;stroke:#000000;stroke-width:1;stroke-linecap:butt;stroke-linejoin:round;stroke-miterlimit:10;stroke-dasharray:none;stroke-opacity:0.6"
           id="path92" />
      </g>
    </g>
    <g
       id="g94">
      <g
         id="g96"
         clip-path="url(#clipPath100)">
        <path
           d="m 635.43877,283.91658 c 2.36462,0 4.63272,0.93948 6.30476,2.61152 1.67204,1.67204 2.61152,3.94014 2.61152,6.30476 0,2.36463 -0.93948,4.63272 -2.61152,6.30476 -1.67204,1.67204 -3.94014,2.61152 -6.30476,2.61152 -2.36462,0 -4.63272,-0.93948 -6.30476,-2.61152 -1.67204,-1.67204 -2.61152,-3.94013 -2.61152,-6.30476 0,-2.36462 0.93948,-4.63272 2.61152,-6.30476 1.67204,-1.67204 3.94014,-2.61152 6.30476,-2.61152 z"
           style="fill:#bcbd22;fill-opacity:0.6;fill-rule:nonzero;stroke:#000000;stroke-width:1;stroke-linecap:butt;stroke-linejoin:round;stroke-miterlimit:10;stroke-dasharray:none;stroke-opacity:0.6"
           id="path102" />
      </g>
    </g>
    <g
       id="g104">
      <g
         id="g106"
         clip-path="url(#clipPath110)">
        <path
           d="m 358.53341,691.56929 c 5.00033,0 9.79653,1.98665 13.3323,5.52242 3.53576,3.53576 5.52241,8.33196 5.52241,13.33229 0,5.00033 -1.98665,9.79653 -5.52241,13.33229 -3.53577,3.53577 -8.33197,5.52242 -13.3323,5.52242 -5.00032,0 -9.79652,-1.98665 -13.33229,-5.52242 -3.53576,-3.53576 -5.52241,-8.33196 -5.52241,-13.33229 0,-5.00033 1.98665,-9.79653 5.52241,-13.33229 3.53577,-3.53577 8.33197,-5.52242 13.33229,-5.52242 z"
           style="fill:#17becf;fill-opacity:0.6;fill-rule:nonzero;stroke:#000000;stroke-width:1;stroke-linecap:butt;stroke-linejoin:round;stroke-miterlimit:10;stroke-dasharray:none;stroke-opacity:0.6"
           id="path112" />
      </g>
    </g>
    <g
       id="g114">
      <g
         id="g116"
         clip-path="url(#clipPath120)">
        <path
           d="m 560.27875,423.14397 c 2.83159,0 5.54759,1.125 7.54983,3.12724 2.00224,2.00224 3.12724,4.71824 3.12724,7.54984 0,2.83159 -1.125,5.54759 -3.12724,7.54983 -2.00224,2.00224 -4.71824,3.12724 -7.54983,3.12724 -2.8316,0 -5.5476,-1.125 -7.54984,-3.12724 -2.00224,-2.00224 -3.12724,-4.71824 -3.12724,-7.54983 0,-2.8316 1.125,-5.5476 3.12724,-7.54984 2.00224,-2.00224 4.71824,-3.12724 7.54984,-3.12724 z"
           style="fill:#1f77b4;fill-opacity:0.6;fill-rule:nonzero;stroke:#000000;stroke-width:1;stroke-linecap:butt;stroke-linejoin:round;stroke-miterlimit:10;stroke-dasharray:none;stroke-opacity:0.6"
           id="path122" />
      </g>
    </g>
    <g
       id="g124">
      <g
         id="g126"
         clip-path="url(#clipPath130)">
        <path
           d="m 338.75446,499.90704 c 2.8316,0 5.5476,1.12501 7.54984,3.12725 2.00223,2.00224 3.12724,4.71824 3.12724,7.54983 0,2.8316 -1.12501,5.5476 -3.12724,7.54984 -2.00224,2.00224 -4.71824,3.12724 -7.54984,3.12724 -2.83159,0 -5.54759,-1.125 -7.54983,-3.12724 -2.00224,-2.00224 -3.12725,-4.71824 -3.12725,-7.54984 0,-2.83159 1.12501,-5.54759 3.12725,-7.54983 2.00224,-2.00224 4.71824,-3.12725 7.54983,-3.12725 z"
           style="fill:#ff7f0e;fill-opacity:0.6;fill-rule:nonzero;stroke:#000000;stroke-width:1;stroke-linecap:butt;stroke-linejoin:round;stroke-miterlimit:10;stroke-dasharray:none;stroke-opacity:0.6"
           id="path132" />
      </g>
    </g>
    <g
       id="g134">
      <g
         id="g136"
         clip-path="url(#clipPath140)">
        <path
           d="M 108,95.04 V 760.32"
           style="fill:none;stroke:#b0b0b0;stroke-width:0.8;stroke-linecap:square;stroke-linejoin:round;stroke-miterlimit:10;stroke-dasharray:none;stroke-opacity:1"
           id="path142" />
      </g>
    </g>
    <g
       id="g144">
      <path
         d="m 108,95.04 v -3.5"
         style="fill:#000000;fill-opacity:1;fill-rule:nonzero;stroke:#000000;stroke-width:0.8;stroke-linecap:butt;stroke-linejoin:round;stroke-miterlimit:10;stroke-dasharray:none;stroke-opacity:1"
         id="path146" />
      <g
         id="g148"
         transform="translate(102.90625,75.88375)">
        <text
           xml:space="preserve"
           transform="scale(1,-1)"
           style="font-variant:normal;font-weight:normal;font-size:16px;font-family:'DejaVu Sans';-inkscape-font-specification:DejaVuSans;writing-mode:lr-tb;fill:#000000;fill-opacity:1;fill-rule:nonzero;stroke:none"
           id="text152"><tspan
             x="0"
             y="0"
             id="tspan150">0</tspan></text>
      </g>
    </g>
    <g
       id="g154">
      <g
         id="g156"
         clip-path="url(#clipPath160)">
        <path
           d="M 211.01538,95.04 V 760.32"
           style="fill:none;stroke:#b0b0b0;stroke-width:0.8;stroke-linecap:square;stroke-linejoin:round;stroke-miterlimit:10;stroke-dasharray:none;stroke-opacity:1"
           id="path162" />
      </g>
    </g>
    <g
       id="g164">
      <path
         d="m 211.01538,95.04 v -3.5"
         style="fill:#000000;fill-opacity:1;fill-rule:nonzero;stroke:#000000;stroke-width:0.8;stroke-linecap:butt;stroke-linejoin:round;stroke-miterlimit:10;stroke-dasharray:none;stroke-opacity:1"
         id="path166" />
      <g
         id="g168"
         transform="translate(200.82788,75.88375)">
        <text
           xml:space="preserve"
           transform="scale(1,-1)"
           style="font-variant:normal;font-weight:normal;font-size:16px;font-family:'DejaVu Sans';-inkscape-font-specification:DejaVuSans;writing-mode:lr-tb;fill:#000000;fill-opacity:1;fill-rule:nonzero;stroke:none"
           id="text172"><tspan
             x="0 10.176"
             y="0"
             id="tspan170">50</tspan></text>
      </g>
    </g>
    <g
       id="g174">
      <g
         id="g176"
         clip-path="url(#clipPath180)">
        <path
           d="M 314.03077,95.04 V 760.32"
           style="fill:none;stroke:#b0b0b0;stroke-width:0.8;stroke-linecap:square;stroke-linejoin:round;stroke-miterlimit:10;stroke-dasharray:none;stroke-opacity:1"
           id="path182" />
      </g>
    </g>
    <g
       id="g184">
      <path
         d="m 314.03077,95.04 v -3.5"
         style="fill:#000000;fill-opacity:1;fill-rule:nonzero;stroke:#000000;stroke-width:0.8;stroke-linecap:butt;stroke-linejoin:round;stroke-miterlimit:10;stroke-dasharray:none;stroke-opacity:1"
         id="path186" />
      <g
         id="g188"
         transform="translate(298.74952,75.88375)">
        <text
           xml:space="preserve"
           transform="scale(1,-1)"
           style="font-variant:normal;font-weight:normal;font-size:16px;font-family:'DejaVu Sans';-inkscape-font-specification:DejaVuSans;writing-mode:lr-tb;fill:#000000;fill-opacity:1;fill-rule:nonzero;stroke:none"
           id="text192"><tspan
             x="0 10.176 20.351999"
             y="0"
             id="tspan190">100</tspan></text>
      </g>
    </g>
    <g
       id="g194">
      <g
         id="g196"
         clip-path="url(#clipPath200)">
        <path
           d="M 417.04615,95.04 V 760.32"
           style="fill:none;stroke:#b0b0b0;stroke-width:0.8;stroke-linecap:square;stroke-linejoin:round;stroke-miterlimit:10;stroke-dasharray:none;stroke-opacity:1"
           id="path202" />
      </g>
    </g>
    <g
       id="g204">
      <path
         d="m 417.04615,95.04 v -3.5"
         style="fill:#000000;fill-opacity:1;fill-rule:nonzero;stroke:#000000;stroke-width:0.8;stroke-linecap:butt;stroke-linejoin:round;stroke-miterlimit:10;stroke-dasharray:none;stroke-opacity:1"
         id="path206" />
      <g
         id="g208"
         transform="translate(401.7649,75.88375)">
        <text
           xml:space="preserve"
           transform="scale(1,-1)"
           style="font-variant:normal;font-weight:normal;font-size:16px;font-family:'DejaVu Sans';-inkscape-font-specification:DejaVuSans;writing-mode:lr-tb;fill:#000000;fill-opacity:1;fill-rule:nonzero;stroke:none"
           id="text212"><tspan
             x="0 10.176 20.351999"
             y="0"
             id="tspan210">150</tspan></text>
      </g>
    </g>
    <g
       id="g214">
      <g
         id="g216"
         clip-path="url(#clipPath220)">
        <path
           d="M 520.06154,95.04 V 760.32"
           style="fill:none;stroke:#b0b0b0;stroke-width:0.8;stroke-linecap:square;stroke-linejoin:round;stroke-miterlimit:10;stroke-dasharray:none;stroke-opacity:1"
           id="path222" />
      </g>
    </g>
    <g
       id="g224">
      <path
         d="m 520.06154,95.04 v -3.5"
         style="fill:#000000;fill-opacity:1;fill-rule:nonzero;stroke:#000000;stroke-width:0.8;stroke-linecap:butt;stroke-linejoin:round;stroke-miterlimit:10;stroke-dasharray:none;stroke-opacity:1"
         id="path226" />
      <g
         id="g228"
         transform="translate(504.78029,75.88375)">
        <text
           xml:space="preserve"
           transform="scale(1,-1)"
           style="font-variant:normal;font-weight:normal;font-size:16px;font-family:'DejaVu Sans';-inkscape-font-specification:DejaVuSans;writing-mode:lr-tb;fill:#000000;fill-opacity:1;fill-rule:nonzero;stroke:none"
           id="text232"><tspan
             x="0 10.176 20.351999"
             y="0"
             id="tspan230">200</tspan></text>
      </g>
    </g>
    <g
       id="g234">
      <g
         id="g236"
         clip-path="url(#clipPath240)">
        <path
           d="M 623.07692,95.04 V 760.32"
           style="fill:none;stroke:#b0b0b0;stroke-width:0.8;stroke-linecap:square;stroke-linejoin:round;stroke-miterlimit:10;stroke-dasharray:none;stroke-opacity:1"
           id="path242" />
      </g>
    </g>
    <g
       id="g244">
      <path
         d="m 623.07692,95.04 v -3.5"
         style="fill:#000000;fill-opacity:1;fill-rule:nonzero;stroke:#000000;stroke-width:0.8;stroke-linecap:butt;stroke-linejoin:round;stroke-miterlimit:10;stroke-dasharray:none;stroke-opacity:1"
         id="path246" />
      <g
         id="g248"
         transform="translate(607.79567,75.88375)">
        <text
           xml:space="preserve"
           transform="scale(1,-1)"
           style="font-variant:normal;font-weight:normal;font-size:16px;font-family:'DejaVu Sans';-inkscape-font-specification:DejaVuSans;writing-mode:lr-tb;fill:#000000;fill-opacity:1;fill-rule:nonzero;stroke:none"
           id="text252"><tspan
             x="0 10.176 20.351999"
             y="0"
             id="tspan250">250</tspan></text>
      </g>
    </g>
    <g
       id="g254">
      <g
         id="g256"
         clip-path="url(#clipPath260)">
        <path
           d="M 726.09231,95.04 V 760.32"
           style="fill:none;stroke:#b0b0b0;stroke-width:0.8;stroke-linecap:square;stroke-linejoin:round;stroke-miterlimit:10;stroke-dasharray:none;stroke-opacity:1"
           id="path262" />
      </g>
    </g>
    <g
       id="g264">
      <path
         d="m 726.09231,95.04 v -3.5"
         style="fill:#000000;fill-opacity:1;fill-rule:nonzero;stroke:#000000;stroke-width:0.8;stroke-linecap:butt;stroke-linejoin:round;stroke-miterlimit:10;stroke-dasharray:none;stroke-opacity:1"
         id="path266" />
      <g
         id="g268"
         transform="translate(710.81106,75.88375)">
        <text
           xml:space="preserve"
           transform="scale(1,-1)"
           style="font-variant:normal;font-weight:normal;font-size:16px;font-family:'DejaVu Sans';-inkscape-font-specification:DejaVuSans;writing-mode:lr-tb;fill:#000000;fill-opacity:1;fill-rule:nonzero;stroke:none"
           id="text272"><tspan
             x="0 10.176 20.351999"
             y="0"
             id="tspan270">300</tspan></text>
      </g>
      <g
         id="g274"
         transform="translate(273.28437,48.805625)">
        <text
           xml:space="preserve"
           transform="scale(1,-1)"
           style="font-variant:normal;font-weight:normal;font-size:26px;font-family:'DejaVu Sans';-inkscape-font-specification:DejaVuSans;writing-mode:lr-tb;fill:#000000;fill-opacity:1;fill-rule:nonzero;stroke:none"
           id="text278"><tspan
             x="0 16.51 33.02 49.009998 65 81.510002 89.778 99.917999 115.45487 130.84688 146.78488 172.10887 188.61888 195.84688 211.83687 225.38287 233.65088 250.16087 266.15088 276.83688 285.10489 298.65088 314.64087 328.94089"
             y="0"
             id="tspan276">Speed (examples per sec)</tspan></text>
      </g>
    </g>
    <g
       id="g280">
      <g
         id="g282"
         clip-path="url(#clipPath286)">
        <path
           d="M 108,95.04 H 777.6"
           style="fill:none;stroke:#b0b0b0;stroke-width:0.8;stroke-linecap:square;stroke-linejoin:round;stroke-miterlimit:10;stroke-dasharray:none;stroke-opacity:1"
           id="path288" />
      </g>
    </g>
    <g
       id="g290">
      <path
         d="m 108,95.04 h -3.5"
         style="fill:#000000;fill-opacity:1;fill-rule:nonzero;stroke:#000000;stroke-width:0.8;stroke-linecap:butt;stroke-linejoin:round;stroke-miterlimit:10;stroke-dasharray:none;stroke-opacity:1"
         id="path292" />
      <g
         id="g294"
         transform="translate(80.625,88.961875)">
        <text
           xml:space="preserve"
           transform="scale(1,-1)"
           style="font-variant:normal;font-weight:normal;font-size:16px;font-family:'DejaVu Sans';-inkscape-font-specification:DejaVuSans;writing-mode:lr-tb;fill:#000000;fill-opacity:1;fill-rule:nonzero;stroke:none"
           id="text298"><tspan
             x="0 10.176"
             y="0"
             id="tspan296">48</tspan></text>
      </g>
    </g>
    <g
       id="g300">
      <g
         id="g302"
         clip-path="url(#clipPath306)">
        <path
           d="M 108,171.80308 H 777.6"
           style="fill:none;stroke:#b0b0b0;stroke-width:0.8;stroke-linecap:square;stroke-linejoin:round;stroke-miterlimit:10;stroke-dasharray:none;stroke-opacity:1"
           id="path308" />
      </g>
    </g>
    <g
       id="g310">
      <path
         d="m 108,171.80308 h -3.5"
         style="fill:#000000;fill-opacity:1;fill-rule:nonzero;stroke:#000000;stroke-width:0.8;stroke-linecap:butt;stroke-linejoin:round;stroke-miterlimit:10;stroke-dasharray:none;stroke-opacity:1"
         id="path312" />
      <g
         id="g314"
         transform="translate(80.625,165.72495)">
        <text
           xml:space="preserve"
           transform="scale(1,-1)"
           style="font-variant:normal;font-weight:normal;font-size:16px;font-family:'DejaVu Sans';-inkscape-font-specification:DejaVuSans;writing-mode:lr-tb;fill:#000000;fill-opacity:1;fill-rule:nonzero;stroke:none"
           id="text318"><tspan
             x="0 10.176"
             y="0"
             id="tspan316">51</tspan></text>
      </g>
    </g>
    <g
       id="g320">
      <g
         id="g322"
         clip-path="url(#clipPath326)">
        <path
           d="M 108,248.56615 H 777.6"
           style="fill:none;stroke:#b0b0b0;stroke-width:0.8;stroke-linecap:square;stroke-linejoin:round;stroke-miterlimit:10;stroke-dasharray:none;stroke-opacity:1"
           id="path328" />
      </g>
    </g>
    <g
       id="g330">
      <path
         d="m 108,248.56615 h -3.5"
         style="fill:#000000;fill-opacity:1;fill-rule:nonzero;stroke:#000000;stroke-width:0.8;stroke-linecap:butt;stroke-linejoin:round;stroke-miterlimit:10;stroke-dasharray:none;stroke-opacity:1"
         id="path332" />
      <g
         id="g334"
         transform="translate(80.625,242.48803)">
        <text
           xml:space="preserve"
           transform="scale(1,-1)"
           style="font-variant:normal;font-weight:normal;font-size:16px;font-family:'DejaVu Sans';-inkscape-font-specification:DejaVuSans;writing-mode:lr-tb;fill:#000000;fill-opacity:1;fill-rule:nonzero;stroke:none"
           id="text338"><tspan
             x="0 10.176"
             y="0"
             id="tspan336">54</tspan></text>
      </g>
    </g>
    <g
       id="g340">
      <g
         id="g342"
         clip-path="url(#clipPath346)">
        <path
           d="M 108,325.32923 H 777.6"
           style="fill:none;stroke:#b0b0b0;stroke-width:0.8;stroke-linecap:square;stroke-linejoin:round;stroke-miterlimit:10;stroke-dasharray:none;stroke-opacity:1"
           id="path348" />
      </g>
    </g>
    <g
       id="g350">
      <path
         d="m 108,325.32923 h -3.5"
         style="fill:#000000;fill-opacity:1;fill-rule:nonzero;stroke:#000000;stroke-width:0.8;stroke-linecap:butt;stroke-linejoin:round;stroke-miterlimit:10;stroke-dasharray:none;stroke-opacity:1"
         id="path352" />
      <g
         id="g354"
         transform="translate(80.625,319.25111)">
        <text
           xml:space="preserve"
           transform="scale(1,-1)"
           style="font-variant:normal;font-weight:normal;font-size:16px;font-family:'DejaVu Sans';-inkscape-font-specification:DejaVuSans;writing-mode:lr-tb;fill:#000000;fill-opacity:1;fill-rule:nonzero;stroke:none"
           id="text358"><tspan
             x="0 10.176"
             y="0"
             id="tspan356">57</tspan></text>
      </g>
    </g>
    <g
       id="g360">
      <g
         id="g362"
         clip-path="url(#clipPath366)">
        <path
           d="M 108,402.09231 H 777.6"
           style="fill:none;stroke:#b0b0b0;stroke-width:0.8;stroke-linecap:square;stroke-linejoin:round;stroke-miterlimit:10;stroke-dasharray:none;stroke-opacity:1"
           id="path368" />
      </g>
    </g>
    <g
       id="g370">
      <path
         d="m 108,402.09231 h -3.5"
         style="fill:#000000;fill-opacity:1;fill-rule:nonzero;stroke:#000000;stroke-width:0.8;stroke-linecap:butt;stroke-linejoin:round;stroke-miterlimit:10;stroke-dasharray:none;stroke-opacity:1"
         id="path372" />
      <g
         id="g374"
         transform="translate(80.625,396.01418)">
        <text
           xml:space="preserve"
           transform="scale(1,-1)"
           style="font-variant:normal;font-weight:normal;font-size:16px;font-family:'DejaVu Sans';-inkscape-font-specification:DejaVuSans;writing-mode:lr-tb;fill:#000000;fill-opacity:1;fill-rule:nonzero;stroke:none"
           id="text378"><tspan
             x="0 10.176"
             y="0"
             id="tspan376">60</tspan></text>
      </g>
    </g>
    <g
       id="g380">
      <g
         id="g382"
         clip-path="url(#clipPath386)">
        <path
           d="M 108,478.85538 H 777.6"
           style="fill:none;stroke:#b0b0b0;stroke-width:0.8;stroke-linecap:square;stroke-linejoin:round;stroke-miterlimit:10;stroke-dasharray:none;stroke-opacity:1"
           id="path388" />
      </g>
    </g>
    <g
       id="g390">
      <path
         d="m 108,478.85538 h -3.5"
         style="fill:#000000;fill-opacity:1;fill-rule:nonzero;stroke:#000000;stroke-width:0.8;stroke-linecap:butt;stroke-linejoin:round;stroke-miterlimit:10;stroke-dasharray:none;stroke-opacity:1"
         id="path392" />
      <g
         id="g394"
         transform="translate(80.625,472.77726)">
        <text
           xml:space="preserve"
           transform="scale(1,-1)"
           style="font-variant:normal;font-weight:normal;font-size:16px;font-family:'DejaVu Sans';-inkscape-font-specification:DejaVuSans;writing-mode:lr-tb;fill:#000000;fill-opacity:1;fill-rule:nonzero;stroke:none"
           id="text398"><tspan
             x="0 10.176"
             y="0"
             id="tspan396">63</tspan></text>
      </g>
    </g>
    <g
       id="g400">
      <g
         id="g402"
         clip-path="url(#clipPath406)">
        <path
           d="M 108,555.61846 H 777.6"
           style="fill:none;stroke:#b0b0b0;stroke-width:0.8;stroke-linecap:square;stroke-linejoin:round;stroke-miterlimit:10;stroke-dasharray:none;stroke-opacity:1"
           id="path408" />
      </g>
    </g>
    <g
       id="g410">
      <path
         d="m 108,555.61846 h -3.5"
         style="fill:#000000;fill-opacity:1;fill-rule:nonzero;stroke:#000000;stroke-width:0.8;stroke-linecap:butt;stroke-linejoin:round;stroke-miterlimit:10;stroke-dasharray:none;stroke-opacity:1"
         id="path412" />
      <g
         id="g414"
         transform="translate(80.625,549.54034)">
        <text
           xml:space="preserve"
           transform="scale(1,-1)"
           style="font-variant:normal;font-weight:normal;font-size:16px;font-family:'DejaVu Sans';-inkscape-font-specification:DejaVuSans;writing-mode:lr-tb;fill:#000000;fill-opacity:1;fill-rule:nonzero;stroke:none"
           id="text418"><tspan
             x="0 10.176"
             y="0"
             id="tspan416">66</tspan></text>
      </g>
    </g>
    <g
       id="g420">
      <g
         id="g422"
         clip-path="url(#clipPath426)">
        <path
           d="M 108,632.38154 H 777.6"
           style="fill:none;stroke:#b0b0b0;stroke-width:0.8;stroke-linecap:square;stroke-linejoin:round;stroke-miterlimit:10;stroke-dasharray:none;stroke-opacity:1"
           id="path428" />
      </g>
    </g>
    <g
       id="g430">
      <path
         d="m 108,632.38154 h -3.5"
         style="fill:#000000;fill-opacity:1;fill-rule:nonzero;stroke:#000000;stroke-width:0.8;stroke-linecap:butt;stroke-linejoin:round;stroke-miterlimit:10;stroke-dasharray:none;stroke-opacity:1"
         id="path432" />
      <g
         id="g434"
         transform="translate(80.625,626.30341)">
        <text
           xml:space="preserve"
           transform="scale(1,-1)"
           style="font-variant:normal;font-weight:normal;font-size:16px;font-family:'DejaVu Sans';-inkscape-font-specification:DejaVuSans;writing-mode:lr-tb;fill:#000000;fill-opacity:1;fill-rule:nonzero;stroke:none"
           id="text438"><tspan
             x="0 10.176"
             y="0"
             id="tspan436">69</tspan></text>
      </g>
    </g>
    <g
       id="g440">
      <g
         id="g442"
         clip-path="url(#clipPath446)">
        <path
           d="M 108,709.14461 H 777.6"
           style="fill:none;stroke:#b0b0b0;stroke-width:0.8;stroke-linecap:square;stroke-linejoin:round;stroke-miterlimit:10;stroke-dasharray:none;stroke-opacity:1"
           id="path448" />
      </g>
    </g>
    <g
       id="g450">
      <path
         d="m 108,709.14461 h -3.5"
         style="fill:#000000;fill-opacity:1;fill-rule:nonzero;stroke:#000000;stroke-width:0.8;stroke-linecap:butt;stroke-linejoin:round;stroke-miterlimit:10;stroke-dasharray:none;stroke-opacity:1"
         id="path452" />
      <g
         id="g454"
         transform="translate(80.625,703.06649)">
        <text
           xml:space="preserve"
           transform="scale(1,-1)"
           style="font-variant:normal;font-weight:normal;font-size:16px;font-family:'DejaVu Sans';-inkscape-font-specification:DejaVuSans;writing-mode:lr-tb;fill:#000000;fill-opacity:1;fill-rule:nonzero;stroke:none"
           id="text458"><tspan
             x="0 10.176"
             y="0"
             id="tspan456">72</tspan></text>
      </g>
      <g
         id="g460"
         transform="rotate(90,-145.64078,216.85953)">
        <text
           xml:space="preserve"
           transform="scale(1,-1)"
           style="font-variant:normal;font-weight:normal;font-size:26px;font-family:'DejaVu Sans';-inkscape-font-specification:DejaVuSans;writing-mode:lr-tb;fill:#000000;fill-opacity:1;fill-rule:nonzero;stroke:none"
           id="text464"><tspan
             x="0 14.482 31.505125 49.289124 57.557125 74.067123 88.367126 104.27912 114.40263"
             y="0"
             id="tspan462">LRA Score</tspan></text>
      </g>
      <path
         d="M 108,95.04 V 760.32"
         style="fill:none;stroke:#000000;stroke-width:0.8;stroke-linecap:square;stroke-linejoin:miter;stroke-miterlimit:10;stroke-dasharray:none;stroke-opacity:1"
         id="path466" />
      <path
         d="M 777.6,95.04 V 760.32"
         style="fill:none;stroke:#000000;stroke-width:0.8;stroke-linecap:square;stroke-linejoin:miter;stroke-miterlimit:10;stroke-dasharray:none;stroke-opacity:1"
         id="path468" />
      <path
         d="M 108,95.04 H 777.6"
         style="fill:none;stroke:#000000;stroke-width:0.8;stroke-linecap:square;stroke-linejoin:miter;stroke-miterlimit:10;stroke-dasharray:none;stroke-opacity:1"
         id="path470" />
      <path
         d="M 108,760.32 H 777.6"
         style="fill:none;stroke:#000000;stroke-width:0.8;stroke-linecap:square;stroke-linejoin:miter;stroke-miterlimit:10;stroke-dasharray:none;stroke-opacity:1"
         id="path472" />
      <g
         id="g474"
         transform="translate(159.09563,416.67729)">
        <text
           xml:space="preserve"
           transform="scale(1,-1)"
           style="font-variant:normal;font-weight:normal;font-size:20px;font-family:'DejaVu Sans';-inkscape-font-specification:DejaVuSans;writing-mode:lr-tb;fill:#000000;fill-opacity:1;fill-rule:nonzero;stroke:none"
           id="text478"><tspan
             x="0 9.2825003 17.502501 29.762501 42.442501 52.862499 59.9025 72.142502 80.018753 99.498749 111.79875"
             y="0"
             id="tspan476">Transformer</tspan></text>
      </g>
      <g
         id="g480"
         transform="translate(544.37317,146.47126)">
        <text
           xml:space="preserve"
           transform="scale(1,-1)"
           style="font-variant:normal;font-weight:normal;font-size:20px;font-family:'DejaVu Sans';-inkscape-font-specification:DejaVuSans;writing-mode:lr-tb;fill:#000000;fill-opacity:1;fill-rule:nonzero;stroke:none"
           id="text484"><tspan
             x="0 10.79625 23.036249 34.036251 46.296249 51.856251 58.216251 71.552498 79.392502 87.232498 99.532501 112.2125 120.0525 125.6125 137.85249"
             y="0"
             id="tspan482">Local Attention</tspan></text>
      </g>
      <g
         id="g486"
         transform="translate(512.64443,316.88529)">
        <text
           xml:space="preserve"
           transform="scale(1,-1)"
           style="font-variant:normal;font-weight:normal;font-size:20px;font-family:'DejaVu Sans';-inkscape-font-specification:DejaVuSans;writing-mode:lr-tb;fill:#000000;fill-opacity:1;fill-rule:nonzero;stroke:none"
           id="text490"><tspan
             x="0 11.14 16.700001 29.379999 36.419998 48.66 56.536251 76.016251 88.316254"
             y="0"
             id="tspan488">Linformer</tspan></text>
      </g>
      <g
         id="g492"
         transform="translate(194.94498,263.66289)">
        <text
           xml:space="preserve"
           transform="scale(1,-1)"
           style="font-variant:normal;font-weight:normal;font-size:20px;font-family:'DejaVu Sans';-inkscape-font-specification:DejaVuSans;writing-mode:lr-tb;fill:#000000;fill-opacity:1;fill-rule:nonzero;stroke:none"
           id="text496"><tspan
             x="0 13.009375 25.309376 32.349377 44.589375 52.465626 71.945625 84.245628"
             y="0"
             id="tspan494">Reformer</tspan></text>
      </g>
      <g
         id="g498"
         transform="translate(395.61895,220.16382)">
        <text
           xml:space="preserve"
           transform="scale(1,-1)"
           style="font-variant:normal;font-weight:normal;font-size:20px;font-family:'DejaVu Sans';-inkscape-font-specification:DejaVuSans;writing-mode:lr-tb;fill:#000000;fill-opacity:1;fill-rule:nonzero;stroke:none"
           id="text502"><tspan
             x="0 12.7 18.26 30.940001 42.52 55.200001 67.440002 75.316254 87.996246 94.356247 103.63875 111.85875 124.11875 136.79875 147.21875"
             y="0"
             id="tspan500">Sinkhorn Trans.</tspan></text>
      </g>
      <g
         id="g504"
         transform="translate(264.17132,349.63754)">
        <text
           xml:space="preserve"
           transform="scale(1,-1)"
           style="font-variant:normal;font-weight:normal;font-size:20px;font-family:'DejaVu Sans';-inkscape-font-specification:DejaVuSans;writing-mode:lr-tb;fill:#000000;fill-opacity:1;fill-rule:nonzero;stroke:none"
           id="text508"><tspan
             x="0 12.7 24.540001 37.220001 45.060001 57.740002 70.040001 80.459999 86.019997 96.519997 108.82"
             y="0"
             id="tspan506">Synthesizer</tspan></text>
      </g>
      <g
         id="g510"
         transform="translate(227.49785,374.96935)">
        <text
           xml:space="preserve"
           transform="scale(1,-1)"
           style="font-variant:normal;font-weight:normal;font-size:20px;font-family:'DejaVu Sans';-inkscape-font-specification:DejaVuSans;writing-mode:lr-tb;fill:#000000;fill-opacity:1;fill-rule:nonzero;stroke:none"
           id="text514"><tspan
             x="0 13.72 19.280001 31.98 45.700001 51.259998 59.13625"
             y="0"
             id="tspan512">BigBird</tspan></text>
      </g>
      <g
         id="g516"
         transform="translate(581.04665,231.93415)">
        <text
           xml:space="preserve"
           transform="scale(1,-1)"
           style="font-variant:normal;font-weight:normal;font-size:20px;font-family:'DejaVu Sans';-inkscape-font-specification:DejaVuSans;writing-mode:lr-tb;fill:#000000;fill-opacity:1;fill-rule:nonzero;stroke:none"
           id="text520"><tspan
             x="0 11.14 16.700001 29.379999 41.68 53.939999 62.16 68.519997 77.802498 86.022499 98.282501 110.9625 121.3825"
             y="0"
             id="tspan518">Linear Trans.</tspan></text>
      </g>
      <g
         id="g522"
         transform="translate(635.43877,305.62671)">
        <text
           xml:space="preserve"
           transform="scale(1,-1)"
           style="font-variant:normal;font-weight:normal;font-size:20px;font-family:'DejaVu Sans';-inkscape-font-specification:DejaVuSans;writing-mode:lr-tb;fill:#000000;fill-opacity:1;fill-rule:nonzero;stroke:none"
           id="text526"><tspan
             x="0 11.356875 23.656876 31.876875 38.916874 51.156876 59.033127 78.513123 90.813126"
             y="0"
             id="tspan524">Performer</tspan></text>
      </g>
      <g
         id="g528"
         transform="translate(379.13649,710.424)">
        <text
           xml:space="preserve"
           transform="scale(1,-1)"
           style="font-variant:normal;font-weight:normal;font-size:20px;font-family:'DejaVu Sans';-inkscape-font-specification:DejaVuSans;writing-mode:lr-tb;fill:#000000;fill-opacity:1;fill-rule:nonzero;stroke:none"
           id="text532"><tspan
             x="0 18.608126 30.908125 36.468124 44.344376 57.044376 64.264374 79.224373 91.524376"
             y="0"
             id="tspan530">Weird-Net</tspan></text>
      </g>
      <g
         id="g534"
         transform="translate(580.88182,433.82105)">
        <text
           xml:space="preserve"
           transform="scale(1,-1)"
           style="font-variant:normal;font-weight:normal;font-size:20px;font-family:'DejaVu Sans';-inkscape-font-specification:DejaVuSans;writing-mode:lr-tb;fill:#000000;fill-opacity:1;fill-rule:nonzero;stroke:none"
           id="text538"><tspan
             x="0 10.79625 23.47625 36.15625 48.416248 55.63625 68.356247 81.076248"
             y="0"
             id="tspan536">Luna-256</tspan></text>
      </g>
      <g
         id="g540"
         transform="translate(359.35754,510.58412)">
        <text
           xml:space="preserve"
           transform="scale(1,-1)"
           style="font-variant:normal;font-weight:normal;font-size:20px;font-family:'DejaVu Sans';-inkscape-font-specification:DejaVuSans;writing-mode:lr-tb;fill:#000000;fill-opacity:1;fill-rule:nonzero;stroke:none"
           id="text544"><tspan
             x="0 9.671875 23.351875 36.051876"
             y="0"
             id="tspan542">FAST</tspan></text>
      </g>
    </g>
  </g>
</svg>
