<?xml version="1.0" encoding="UTF-8" standalone="no"?>
<!DOCTYPE svg PUBLIC "-//W3C//DTD SVG 1.1//EN" "http://www.w3.org/Graphics/SVG/1.1/DTD/svg11.dtd">
<svg xmlns="http://www.w3.org/2000/svg" xmlns:xlink="http://www.w3.org/1999/xlink" version="1.1" width="733.0673pt" height="715.8943pt" viewBox="0 0 733.0673 715.8943">
<g enable-background="new">
<g>
<path transform="matrix(1,0,0,-1,-48.2987,769.549)" d="M 0 0 L 864 0 L 864 864 L 0 864 Z " fill="#ffffff"/>
<path transform="matrix(1,0,0,-1,-48.2987,769.549)" d="M 108 108 L 777.6 108 L 777.6 760.32 L 108 760.32 Z " fill="#ffffff"/>
<clipPath id="cp0">
<path transform="matrix(1,0,0,-1,-48.2987,769.549)" d="M 108 108 L 777.6 108 L 777.6 760.32 L 108 760.32 Z "/>
</clipPath>
<g clip-path="url(#cp0)">
<g>
<path transform="matrix(1,0,0,-1,-48.2987,769.549)" d="M 200.30179 420.21568 C 207.37332 420.21568 214.15616 423.0252 219.1565 428.02555 C 224.15682 433.02586 226.96637 439.80873 226.96637 446.88026 C 226.96637 453.95179 224.15682 460.73463 219.1565 465.73497 C 214.15616 470.73527 207.37332 473.54484 200.30179 473.54484 C 193.23026 473.54484 186.4474 470.73527 181.44709 465.73497 C 176.44675 460.73463 173.6372 453.95179 173.6372 446.88026 C 173.6372 439.80873 176.44675 433.02586 181.44709 428.02555 C 186.4474 423.0252 193.23026 420.21568 200.30179 420.21568 Z " fill="#1f77b4" fill-opacity=".6"/>
<path transform="matrix(1,0,0,-1,-48.2987,769.549)" stroke-width="1" stroke-linecap="butt" stroke-linejoin="round" fill="none" stroke="#000000" stroke-opacity=".6" d="M 200.30179 420.21568 C 207.37332 420.21568 214.15616 423.0252 219.1565 428.02555 C 224.15682 433.02586 226.96637 439.80873 226.96637 446.88026 C 226.96637 453.95179 224.15682 460.73463 219.1565 465.73497 C 214.15616 470.73527 207.37332 473.54484 200.30179 473.54484 C 193.23026 473.54484 186.4474 470.73527 181.44709 465.73497 C 176.44675 460.73463 173.6372 453.95179 173.6372 446.88026 C 173.6372 439.80873 176.44675 433.02586 181.44709 428.02555 C 186.4474 423.0252 193.23026 420.21568 200.30179 420.21568 Z "/>
</g>
</g>
<clipPath id="cp1">
<path transform="matrix(1,0,0,-1,-48.2987,769.549)" d="M 108 108 L 777.6 108 L 777.6 760.32 L 108 760.32 Z "/>
</clipPath>
<g clip-path="url(#cp1)">
<g>
<path transform="matrix(1,0,0,-1,-48.2987,769.549)" d="M 595.88088 165.0524 C 598.5691 165.0524 601.14767 166.12044 603.0485 168.02132 C 604.9494 169.92221 606.01748 172.50072 606.01748 175.18897 C 606.01748 177.87722 604.9494 180.45572 603.0485 182.3566 C 601.14767 184.25748 598.5691 185.32553 595.88088 185.32553 C 593.1926 185.32553 590.6141 184.25748 588.7132 182.3566 C 586.8123 180.45572 585.7443 177.87722 585.7443 175.18897 C 585.7443 172.50072 586.8123 169.92221 588.7132 168.02132 C 590.6141 166.12044 593.1926 165.0524 595.88088 165.0524 Z " fill="#ff7f0e" fill-opacity=".6"/>
<path transform="matrix(1,0,0,-1,-48.2987,769.549)" stroke-width="1" stroke-linecap="butt" stroke-linejoin="round" fill="none" stroke="#000000" stroke-opacity=".6" d="M 595.88088 165.0524 C 598.5691 165.0524 601.14767 166.12044 603.0485 168.02132 C 604.9494 169.92221 606.01748 172.50072 606.01748 175.18897 C 606.01748 177.87722 604.9494 180.45572 603.0485 182.3566 C 601.14767 184.25748 598.5691 185.32553 595.88088 185.32553 C 593.1926 185.32553 590.6141 184.25748 588.7132 182.3566 C 586.8123 180.45572 585.7443 177.87722 585.7443 175.18897 C 585.7443 172.50072 586.8123 169.92221 588.7132 168.02132 C 590.6141 166.12044 593.1926 165.0524 595.88088 165.0524 Z "/>
</g>
</g>
<clipPath id="cp2">
<path transform="matrix(1,0,0,-1,-48.2987,769.549)" d="M 108 108 L 777.6 108 L 777.6 760.32 L 108 760.32 Z "/>
</clipPath>
<g clip-path="url(#cp2)">
<g>
<path transform="matrix(1,0,0,-1,-48.2987,769.549)" d="M 615.6598 339.43693 C 617.945 339.43693 620.13699 340.34486 621.75289 341.96073 C 623.3687 343.57664 624.2767 345.76856 624.2767 348.05378 C 624.2767 350.339 623.3687 352.53089 621.75289 354.1468 C 620.13699 355.76268 617.945 356.6706 615.6598 356.6706 C 613.3746 356.6706 611.1827 355.76268 609.5668 354.1468 C 607.95089 352.53089 607.04299 350.339 607.04299 348.05378 C 607.04299 345.76856 607.95089 343.57664 609.5668 341.96073 C 611.1827 340.34486 613.3746 339.43693 615.6598 339.43693 Z " fill="#2ca02c" fill-opacity=".6"/>
<path transform="matrix(1,0,0,-1,-48.2987,769.549)" stroke-width="1" stroke-linecap="butt" stroke-linejoin="round" fill="none" stroke="#000000" stroke-opacity=".6" d="M 615.6598 339.43693 C 617.945 339.43693 620.13699 340.34486 621.75289 341.96073 C 623.3687 343.57664 624.2767 345.76856 624.2767 348.05378 C 624.2767 350.339 623.3687 352.53089 621.75289 354.1468 C 620.13699 355.76268 617.945 356.6706 615.6598 356.6706 C 613.3746 356.6706 611.1827 355.76268 609.5668 354.1468 C 607.95089 352.53089 607.04299 350.339 607.04299 348.05378 C 607.04299 345.76856 607.95089 343.57664 609.5668 341.96073 C 611.1827 340.34486 613.3746 339.43693 615.6598 339.43693 Z "/>
</g>
</g>
<clipPath id="cp3">
<path transform="matrix(1,0,0,-1,-48.2987,769.549)" d="M 108 108 L 777.6 108 L 777.6 760.32 L 108 760.32 Z "/>
</clipPath>
<g clip-path="url(#cp3)">
<g>
<path transform="matrix(1,0,0,-1,-48.2987,769.549)" d="M 180.52283 312.47203 C 183.99082 312.47203 187.31722 313.84986 189.76946 316.3021 C 192.22168 318.75434 193.59954 322.08076 193.59954 325.5487 C 193.59954 329.0167 192.22168 332.3431 189.76946 334.79536 C 187.31722 337.2476 183.99082 338.62544 180.52283 338.62544 C 177.05486 338.62544 173.72844 337.2476 171.27622 334.79536 C 168.82398 332.3431 167.44614 329.0167 167.44614 325.5487 C 167.44614 322.08076 168.82398 318.75434 171.27622 316.3021 C 173.72844 313.84986 177.05486 312.47203 180.52283 312.47203 Z " fill="#d62728" fill-opacity=".6"/>
<path transform="matrix(1,0,0,-1,-48.2987,769.549)" stroke-width="1" stroke-linecap="butt" stroke-linejoin="round" fill="none" stroke="#000000" stroke-opacity=".6" d="M 180.52283 312.47203 C 183.99082 312.47203 187.31722 313.84986 189.76946 316.3021 C 192.22168 318.75434 193.59954 322.08076 193.59954 325.5487 C 193.59954 329.0167 192.22168 332.3431 189.76946 334.79536 C 187.31722 337.2476 183.99082 338.62544 180.52283 338.62544 C 177.05486 338.62544 173.72844 337.2476 171.27622 334.79536 C 168.82398 332.3431 167.44614 329.0167 167.44614 325.5487 C 167.44614 322.08076 168.82398 318.75434 171.27622 316.3021 C 173.72844 313.84986 177.05486 312.47203 180.52283 312.47203 Z "/>
</g>
</g>
<clipPath id="cp4">
<path transform="matrix(1,0,0,-1,-48.2987,769.549)" d="M 108 108 L 777.6 108 L 777.6 760.32 L 108 760.32 Z "/>
</clipPath>
<g clip-path="url(#cp4)">
<g>
<path transform="matrix(1,0,0,-1,-48.2987,769.549)" d="M 457.4282 338.49659 C 460.22227 338.49659 462.9023 339.6067 464.87803 341.5824 C 466.85374 343.55815 467.96385 346.23817 467.96385 349.03224 C 467.96385 351.82633 466.85374 354.50636 464.87803 356.4821 C 462.9023 358.4578 460.22227 359.5679 457.4282 359.5679 C 454.6341 359.5679 451.95408 358.4578 449.97837 356.4821 C 448.00263 354.50636 446.89253 351.82633 446.89253 349.03224 C 446.89253 346.23817 448.00263 343.55815 449.97837 341.5824 C 451.95408 339.6067 454.6341 338.49659 457.4282 338.49659 Z " fill="#9467bd" fill-opacity=".6"/>
<path transform="matrix(1,0,0,-1,-48.2987,769.549)" stroke-width="1" stroke-linecap="butt" stroke-linejoin="round" fill="none" stroke="#000000" stroke-opacity=".6" d="M 457.4282 338.49659 C 460.22227 338.49659 462.9023 339.6067 464.87803 341.5824 C 466.85374 343.55815 467.96385 346.23817 467.96385 349.03224 C 467.96385 351.82633 466.85374 354.50636 464.87803 356.4821 C 462.9023 358.4578 460.22227 359.5679 457.4282 359.5679 C 454.6341 359.5679 451.95408 358.4578 449.97837 356.4821 C 448.00263 354.50636 446.89253 351.82633 446.89253 349.03224 C 446.89253 346.23817 448.00263 343.55815 449.97837 341.5824 C 451.95408 339.6067 454.6341 338.49659 457.4282 338.49659 Z "/>
</g>
</g>
<clipPath id="cp5">
<path transform="matrix(1,0,0,-1,-48.2987,769.549)" d="M 108 108 L 777.6 108 L 777.6 760.32 L 108 760.32 Z "/>
</clipPath>
<g clip-path="url(#cp5)">
<g>
<path transform="matrix(1,0,0,-1,-48.2987,769.549)" d="M 233.26671 374.73359 C 239.33893 374.73359 245.16327 377.1461 249.45699 381.43983 C 253.75069 385.73353 256.1632 391.55787 256.1632 397.63008 C 256.1632 403.7023 253.75069 409.52665 249.45699 413.82035 C 245.16327 418.11408 239.33893 420.52659 233.26671 420.52659 C 227.19449 420.52659 221.37015 418.11408 217.07643 413.82035 C 212.78272 409.52665 210.3702 403.7023 210.3702 397.63008 C 210.3702 391.55787 212.78272 385.73353 217.07643 381.43983 C 221.37015 377.1461 227.19449 374.73359 233.26671 374.73359 Z " fill="#8c564b" fill-opacity=".6"/>
<path transform="matrix(1,0,0,-1,-48.2987,769.549)" stroke-width="1" stroke-linecap="butt" stroke-linejoin="round" fill="none" stroke="#000000" stroke-opacity=".6" d="M 233.26671 374.73359 C 239.33893 374.73359 245.16327 377.1461 249.45699 381.43983 C 253.75069 385.73353 256.1632 391.55787 256.1632 397.63008 C 256.1632 403.7023 253.75069 409.52665 249.45699 413.82035 C 245.16327 418.11408 239.33893 420.52659 233.26671 420.52659 C 227.19449 420.52659 221.37015 418.11408 217.07643 413.82035 C 212.78272 409.52665 210.3702 403.7023 210.3702 397.63008 C 210.3702 391.55787 212.78272 385.73353 217.07643 381.43983 C 221.37015 377.1461 227.19449 374.73359 233.26671 374.73359 Z "/>
</g>
</g>
<clipPath id="cp6">
<path transform="matrix(1,0,0,-1,-48.2987,769.549)" d="M 108 108 L 777.6 108 L 777.6 760.32 L 108 760.32 Z "/>
</clipPath>
<g clip-path="url(#cp6)">
<g>
<path transform="matrix(1,0,0,-1,-48.2987,769.549)" d="M 206.89478 452.4052 C 210.79245 452.4052 214.531 453.9538 217.28708 456.70988 C 220.04315 459.4659 221.5917 463.2045 221.5917 467.10218 C 221.5917 470.99986 220.04315 474.7384 217.28708 477.49449 C 214.531 480.25056 210.79245 481.7991 206.89478 481.7991 C 202.9971 481.7991 199.25853 480.25056 196.50246 477.49449 C 193.7464 474.7384 192.19783 470.99986 192.19783 467.10218 C 192.19783 463.2045 193.7464 459.4659 196.50246 456.70988 C 199.25853 453.9538 202.9971 452.4052 206.89478 452.4052 Z " fill="#e377c2" fill-opacity=".6"/>
<path transform="matrix(1,0,0,-1,-48.2987,769.549)" stroke-width="1" stroke-linecap="butt" stroke-linejoin="round" fill="none" stroke="#000000" stroke-opacity=".6" d="M 206.89478 452.4052 C 210.79245 452.4052 214.531 453.9538 217.28708 456.70988 C 220.04315 459.4659 221.5917 463.2045 221.5917 467.10218 C 221.5917 470.99986 220.04315 474.7384 217.28708 477.49449 C 214.531 480.25056 210.79245 481.7991 206.89478 481.7991 C 202.9971 481.7991 199.25853 480.25056 196.50246 477.49449 C 193.7464 474.7384 192.19783 470.99986 192.19783 467.10218 C 192.19783 463.2045 193.7464 459.4659 196.50246 456.70988 C 199.25853 453.9538 202.9971 452.4052 206.89478 452.4052 Z "/>
</g>
</g>
<clipPath id="cp7">
<path transform="matrix(1,0,0,-1,-48.2987,769.549)" d="M 108 108 L 777.6 108 L 777.6 760.32 L 108 760.32 Z "/>
</clipPath>
<g clip-path="url(#cp7)">
<g>
<path transform="matrix(1,0,0,-1,-48.2987,769.549)" d="M 622.2528 312.8456 C 624.58377 312.8456 626.8195 313.7717 628.4677 315.4199 C 630.1159 317.0681 631.042 319.30387 631.042 321.6348 C 631.042 323.96574 630.1159 326.20149 628.4677 327.8497 C 626.8195 329.49794 624.58377 330.424 622.2528 330.424 C 619.9219 330.424 617.6861 329.49794 616.0379 327.8497 C 614.3897 326.20149 613.4636 323.96574 613.4636 321.6348 C 613.4636 319.30387 614.3897 317.0681 616.0379 315.4199 C 617.6861 313.7717 619.9219 312.8456 622.2528 312.8456 Z " fill="#919191" fill-opacity=".6"/>
<path transform="matrix(1,0,0,-1,-48.2987,769.549)" stroke-width="1" stroke-linecap="butt" stroke-linejoin="round" fill="none" stroke="#000000" stroke-opacity=".6" d="M 622.2528 312.8456 C 624.58377 312.8456 626.8195 313.7717 628.4677 315.4199 C 630.1159 317.0681 631.042 319.30387 631.042 321.6348 C 631.042 323.96574 630.1159 326.20149 628.4677 327.8497 C 626.8195 329.49794 624.58377 330.424 622.2528 330.424 C 619.9219 330.424 617.6861 329.49794 616.0379 327.8497 C 614.3897 326.20149 613.4636 323.96574 613.4636 321.6348 C 613.4636 319.30387 614.3897 317.0681 616.0379 315.4199 C 617.6861 313.7717 619.9219 312.8456 622.2528 312.8456 Z "/>
</g>
</g>
<clipPath id="cp8">
<path transform="matrix(1,0,0,-1,-48.2987,769.549)" d="M 108 108 L 777.6 108 L 777.6 760.32 L 108 760.32 Z "/>
</clipPath>
<g clip-path="url(#cp8)">
<g>
<path transform="matrix(1,0,0,-1,-48.2987,769.549)" d="M 635.4388 340.76829 C 637.8034 340.76829 640.0715 341.70777 641.7435 343.3798 C 643.4156 345.05186 644.35507 347.31996 644.35507 349.68458 C 644.35507 352.0492 643.4156 354.3173 641.7435 355.98933 C 640.0715 357.66139 637.8034 358.60084 635.4388 358.60084 C 633.07418 358.60084 630.806 357.66139 629.13406 355.98933 C 627.462 354.3173 626.5225 352.0492 626.5225 349.68458 C 626.5225 347.31996 627.462 345.05186 629.13406 343.3798 C 630.806 341.70777 633.07418 340.76829 635.4388 340.76829 Z " fill="#bcbd22" fill-opacity=".6"/>
<path transform="matrix(1,0,0,-1,-48.2987,769.549)" stroke-width="1" stroke-linecap="butt" stroke-linejoin="round" fill="none" stroke="#000000" stroke-opacity=".6" d="M 635.4388 340.76829 C 637.8034 340.76829 640.0715 341.70777 641.7435 343.3798 C 643.4156 345.05186 644.35507 347.31996 644.35507 349.68458 C 644.35507 352.0492 643.4156 354.3173 641.7435 355.98933 C 640.0715 357.66139 637.8034 358.60084 635.4388 358.60084 C 633.07418 358.60084 630.806 357.66139 629.13406 355.98933 C 627.462 354.3173 626.5225 352.0492 626.5225 349.68458 C 626.5225 347.31996 627.462 345.05186 629.13406 343.3798 C 630.806 341.70777 633.07418 340.76829 635.4388 340.76829 Z "/>
</g>
</g>
<clipPath id="cp9">
<path transform="matrix(1,0,0,-1,-48.2987,769.549)" d="M 108 108 L 777.6 108 L 777.6 760.32 L 108 760.32 Z "/>
</clipPath>
<g clip-path="url(#cp9)">
<g>
<path transform="matrix(1,0,0,-1,-48.2987,769.549)" d="M 358.53343 681.778 C 363.53376 681.778 368.32997 683.76467 371.8657 687.3004 C 375.40147 690.8362 377.38813 695.6324 377.38813 700.6327 C 377.38813 705.63308 375.40147 710.42929 371.8657 713.965 C 368.32997 717.5008 363.53376 719.4874 358.53343 719.4874 C 353.53309 719.4874 348.73689 717.5008 345.2011 713.965 C 341.66535 710.42929 339.6787 705.63308 339.6787 700.6327 C 339.6787 695.6324 341.66535 690.8362 345.2011 687.3004 C 348.73689 683.76467 353.53309 681.778 358.53343 681.778 Z " fill="#17becf" fill-opacity=".6"/>
<path transform="matrix(1,0,0,-1,-48.2987,769.549)" stroke-width="1" stroke-linecap="butt" stroke-linejoin="round" fill="none" stroke="#000000" stroke-opacity=".6" d="M 358.53343 681.778 C 363.53376 681.778 368.32997 683.76467 371.8657 687.3004 C 375.40147 690.8362 377.38813 695.6324 377.38813 700.6327 C 377.38813 705.63308 375.40147 710.42929 371.8657 713.965 C 368.32997 717.5008 363.53376 719.4874 358.53343 719.4874 C 353.53309 719.4874 348.73689 717.5008 345.2011 713.965 C 341.66535 710.42929 339.6787 705.63308 339.6787 700.6327 C 339.6787 695.6324 341.66535 690.8362 345.2011 687.3004 C 348.73689 683.76467 353.53309 681.778 358.53343 681.778 Z "/>
</g>
</g>
<clipPath id="cp10">
<path transform="matrix(1,0,0,-1,-48.2987,769.549)" d="M 108 108 L 777.6 108 L 777.6 760.32 L 108 760.32 Z "/>
</clipPath>
<g clip-path="url(#cp10)">
<path transform="matrix(1,0,0,-1,-48.2987,769.549)" stroke-width=".8" stroke-linecap="square" stroke-linejoin="round" fill="none" stroke="#bebebe" d="M 108 108 L 108 760.32 "/>
</g>
<path transform="matrix(1,0,0,-1,-48.2987,769.549)" stroke-width=".8" stroke-linecap="butt" stroke-linejoin="round" fill="none" stroke="#000000" d="M 108 108 L 108 104.5 "/>
<symbol id="font_b_30">
<path transform="matrix(.001,0,0,.001,-.066,.013)" d="M 318 664 C 267 664 229 639 203 589 C 177 539 165 464 165 364 C 165 264 177 189 203 139 C 229 89 267 64 318 64 C 369 64 407 89 433 139 C 458 189 471 264 471 364 C 471 464 458 539 433 589 C 407 639 369 664 318 664 M 318 742 C 399 742 461 709 505 645 C 548 580 570 486 570 364 C 570 241 548 147 505 83 C 461 19 399 -13 318 -13 C 236 -13 173 19 130 83 C 87 147 66 241 66 364 C 66 486 87 580 130 645 C 173 709 236 742 318 742 "/>
</symbol>
<use xlink:href="#font_b_30" transform="matrix(16,0,0,-16,55.66355,680.91329)"/>
<clipPath id="cp12">
<path transform="matrix(1,0,0,-1,-48.2987,769.549)" d="M 108 108 L 777.6 108 L 777.6 760.32 L 108 760.32 Z "/>
</clipPath>
<g clip-path="url(#cp12)">
<path transform="matrix(1,0,0,-1,-48.2987,769.549)" stroke-width=".8" stroke-linecap="square" stroke-linejoin="round" fill="none" stroke="#bebebe" d="M 211.01538 108 L 211.01538 760.32 "/>
</g>
<path transform="matrix(1,0,0,-1,-48.2987,769.549)" stroke-width=".8" stroke-linecap="butt" stroke-linejoin="round" fill="none" stroke="#000000" d="M 211.01538 108 L 211.01538 104.5 "/>
<symbol id="font_b_35">
<path transform="matrix(.001,0,0,.001,-.07700001,.013)" d="M 108 729 L 495 729 L 495 646 L 198 646 L 198 467 C 212 472 227 476 241 478 C 255 480 270 482 284 482 C 365 482 429 459 477 415 C 525 370 549 310 549 234 C 549 155 524 94 475 51 C 426 8 357 -13 269 -13 C 238 -13 207 -10 175 -6 C 143 -1 111 6 77 17 L 77 116 C 106 100 136 88 168 80 C 199 72 232 69 267 69 C 323 69 368 83 401 113 C 433 143 450 183 450 234 C 450 284 433 324 401 354 C 368 384 323 399 267 399 C 241 399 214 396 188 390 C 162 384 135 375 108 363 L 108 729 "/>
</symbol>
<use xlink:href="#font_b_35" transform="matrix(16,0,0,-16,153.76117,680.91329)"/>
<use xlink:href="#font_b_30" transform="matrix(16,0,0,-16,163.76117,680.91329)"/>
<clipPath id="cp13">
<path transform="matrix(1,0,0,-1,-48.2987,769.549)" d="M 108 108 L 777.6 108 L 777.6 760.32 L 108 760.32 Z "/>
</clipPath>
<g clip-path="url(#cp13)">
<path transform="matrix(1,0,0,-1,-48.2987,769.549)" stroke-width=".8" stroke-linecap="square" stroke-linejoin="round" fill="none" stroke="#bebebe" d="M 314.03077 108 L 314.03077 760.32 "/>
</g>
<path transform="matrix(1,0,0,-1,-48.2987,769.549)" stroke-width=".8" stroke-linecap="butt" stroke-linejoin="round" fill="none" stroke="#000000" d="M 314.03077 108 L 314.03077 104.5 "/>
<symbol id="font_b_31">
<path transform="matrix(.001,0,0,.001,-.11000001,0)" d="M 124 83 L 285 83 L 285 639 L 110 604 L 110 694 L 284 729 L 383 729 L 383 83 L 544 83 L 544 0 L 124 0 L 124 83 "/>
</symbol>
<use xlink:href="#font_b_31" transform="matrix(16,0,0,-16,252.2108,680.70529)"/>
<use xlink:href="#font_b_30" transform="matrix(16,0,0,-16,261.6828,680.91329)"/>
<use xlink:href="#font_b_30" transform="matrix(16,0,0,-16,271.8588,680.91329)"/>
<clipPath id="cp14">
<path transform="matrix(1,0,0,-1,-48.2987,769.549)" d="M 108 108 L 777.6 108 L 777.6 760.32 L 108 760.32 Z "/>
</clipPath>
<g clip-path="url(#cp14)">
<path transform="matrix(1,0,0,-1,-48.2987,769.549)" stroke-width=".8" stroke-linecap="square" stroke-linejoin="round" fill="none" stroke="#bebebe" d="M 417.04615 108 L 417.04615 760.32 "/>
</g>
<path transform="matrix(1,0,0,-1,-48.2987,769.549)" stroke-width=".8" stroke-linecap="butt" stroke-linejoin="round" fill="none" stroke="#000000" d="M 417.04615 108 L 417.04615 104.5 "/>
<use xlink:href="#font_b_31" transform="matrix(16,0,0,-16,355.2262,680.70529)"/>
<use xlink:href="#font_b_35" transform="matrix(16,0,0,-16,364.87419,680.91329)"/>
<use xlink:href="#font_b_30" transform="matrix(16,0,0,-16,374.87419,680.91329)"/>
<clipPath id="cp15">
<path transform="matrix(1,0,0,-1,-48.2987,769.549)" d="M 108 108 L 777.6 108 L 777.6 760.32 L 108 760.32 Z "/>
</clipPath>
<g clip-path="url(#cp15)">
<path transform="matrix(1,0,0,-1,-48.2987,769.549)" stroke-width=".8" stroke-linecap="square" stroke-linejoin="round" fill="none" stroke="#bebebe" d="M 520.0615 108 L 520.0615 760.32 "/>
</g>
<path transform="matrix(1,0,0,-1,-48.2987,769.549)" stroke-width=".8" stroke-linecap="butt" stroke-linejoin="round" fill="none" stroke="#000000" d="M 520.0615 108 L 520.0615 104.5 "/>
<symbol id="font_b_32">
<path transform="matrix(.001,0,0,.001,-.07300001,0)" d="M 192 83 L 536 83 L 536 0 L 73 0 L 73 83 C 110 121 161 173 226 239 C 290 304 331 346 348 365 C 380 400 402 430 414 455 C 426 479 433 504 433 528 C 433 566 419 598 392 622 C 365 646 330 659 286 659 C 255 659 222 653 188 643 C 154 632 117 616 78 594 L 78 694 C 118 710 155 722 189 730 C 223 738 255 742 284 742 C 359 742 419 723 464 685 C 509 647 532 597 532 534 C 532 504 526 475 515 449 C 504 422 484 390 454 354 C 446 344 420 317 376 272 C 332 227 271 164 192 83 "/>
</symbol>
<use xlink:href="#font_b_32" transform="matrix(16,0,0,-16,457.64958,680.70529)"/>
<use xlink:href="#font_b_30" transform="matrix(16,0,0,-16,467.7136,680.91329)"/>
<use xlink:href="#font_b_30" transform="matrix(16,0,0,-16,477.88963,680.91329)"/>
<clipPath id="cp16">
<path transform="matrix(1,0,0,-1,-48.2987,769.549)" d="M 108 108 L 777.6 108 L 777.6 760.32 L 108 760.32 Z "/>
</clipPath>
<g clip-path="url(#cp16)">
<path transform="matrix(1,0,0,-1,-48.2987,769.549)" stroke-width=".8" stroke-linecap="square" stroke-linejoin="round" fill="none" stroke="#bebebe" d="M 623.0769 108 L 623.0769 760.32 "/>
</g>
<path transform="matrix(1,0,0,-1,-48.2987,769.549)" stroke-width=".8" stroke-linecap="butt" stroke-linejoin="round" fill="none" stroke="#000000" d="M 623.0769 108 L 623.0769 104.5 "/>
<use xlink:href="#font_b_32" transform="matrix(16,0,0,-16,560.665,680.70529)"/>
<use xlink:href="#font_b_35" transform="matrix(16,0,0,-16,570.90499,680.91329)"/>
<use xlink:href="#font_b_30" transform="matrix(16,0,0,-16,580.905,680.91329)"/>
<clipPath id="cp17">
<path transform="matrix(1,0,0,-1,-48.2987,769.549)" d="M 108 108 L 777.6 108 L 777.6 760.32 L 108 760.32 Z "/>
</clipPath>
<g clip-path="url(#cp17)">
<path transform="matrix(1,0,0,-1,-48.2987,769.549)" stroke-width=".8" stroke-linecap="square" stroke-linejoin="round" fill="none" stroke="#bebebe" d="M 726.0923 108 L 726.0923 760.32 "/>
</g>
<path transform="matrix(1,0,0,-1,-48.2987,769.549)" stroke-width=".8" stroke-linecap="butt" stroke-linejoin="round" fill="none" stroke="#000000" d="M 726.0923 108 L 726.0923 104.5 "/>
<symbol id="font_b_33">
<path transform="matrix(.001,0,0,.001,-.076000008,.013)" d="M 406 393 C 453 383 490 362 516 330 C 542 298 556 258 556 212 C 556 140 531 84 482 45 C 432 6 362 -13 271 -13 C 240 -13 208 -10 176 -4 C 144 1 110 10 76 22 L 76 117 C 103 101 133 89 166 81 C 198 73 232 69 268 69 C 330 69 377 81 409 105 C 441 129 458 165 458 212 C 458 254 443 288 413 312 C 383 336 341 349 287 349 L 202 349 L 202 430 L 291 430 C 339 430 376 439 402 459 C 428 478 441 506 441 543 C 441 580 427 609 401 629 C 374 649 336 659 287 659 C 260 659 231 656 200 650 C 169 644 135 635 98 623 L 98 711 C 135 721 170 729 203 734 C 235 739 266 742 296 742 C 370 742 429 725 473 691 C 517 657 539 611 539 553 C 539 513 527 479 504 451 C 481 423 448 403 406 393 "/>
</symbol>
<use xlink:href="#font_b_33" transform="matrix(16,0,0,-16,663.72836,680.91329)"/>
<use xlink:href="#font_b_30" transform="matrix(16,0,0,-16,673.7444,680.91329)"/>
<use xlink:href="#font_b_30" transform="matrix(16,0,0,-16,683.9204,680.91329)"/>
<symbol id="font_b_53">
<path transform="matrix(.001,0,0,.001,-.066,.013)" d="M 535 705 L 535 609 C 497 627 462 640 429 649 C 395 657 363 662 333 662 C 279 662 237 651 208 631 C 179 610 165 580 165 542 C 165 510 174 485 194 469 C 213 452 250 439 304 429 L 364 417 C 437 403 491 378 526 343 C 561 307 579 260 579 201 C 579 130 555 77 508 41 C 460 5 391 -13 300 -13 C 265 -13 228 -9 189 -2 C 150 5 110 16 69 32 L 69 134 C 109 111 148 94 186 83 C 224 71 262 66 300 66 C 356 66 399 77 430 99 C 460 121 476 152 476 194 C 476 230 465 258 443 278 C 421 298 385 313 335 323 L 275 335 C 201 349 148 372 115 404 C 82 435 66 478 66 534 C 66 598 88 649 134 686 C 179 723 242 742 322 742 C 356 742 390 739 426 733 C 461 727 497 717 535 705 "/>
</symbol>
<symbol id="font_b_70">
<path transform="matrix(.001,0,0,.001,-.091000009,.20700002)" d="M 181 82 L 181 -207 L 91 -207 L 91 547 L 181 547 L 181 464 C 199 496 223 520 252 536 C 281 552 316 560 356 560 C 422 560 476 533 518 481 C 559 428 580 359 580 273 C 580 187 559 117 518 65 C 476 13 422 -13 356 -13 C 316 -13 281 -5 252 10 C 223 25 199 49 181 82 M 487 273 C 487 339 473 390 446 428 C 418 466 381 485 334 485 C 286 485 249 466 222 428 C 194 390 181 339 181 273 C 181 207 194 155 222 117 C 249 79 286 61 334 61 C 381 61 418 79 446 117 C 473 155 487 207 487 273 "/>
</symbol>
<symbol id="font_b_65">
<path transform="matrix(.001,0,0,.001,-.055000005,.013)" d="M 562 296 L 562 252 L 149 252 C 153 190 171 142 205 110 C 238 78 284 62 344 62 C 378 62 412 66 444 74 C 476 82 509 95 541 113 L 541 28 C 509 14 476 3 442 -3 C 408 -9 373 -13 339 -13 C 251 -13 182 12 131 62 C 80 112 55 181 55 268 C 55 357 79 428 127 481 C 175 533 241 560 323 560 C 397 560 455 536 498 489 C 540 441 562 377 562 296 M 472 322 C 471 371 457 410 431 440 C 404 469 368 484 324 484 C 274 484 234 469 204 441 C 174 413 156 373 152 322 L 472 322 "/>
</symbol>
<symbol id="font_b_64">
<path transform="matrix(.001,0,0,.001,-.055000005,.013)" d="M 454 464 L 454 760 L 544 760 L 544 0 L 454 0 L 454 82 C 435 49 411 25 382 10 C 353 -5 319 -13 279 -13 C 213 -13 159 13 117 65 C 75 117 55 187 55 273 C 55 359 75 428 117 481 C 159 533 213 560 279 560 C 319 560 353 552 382 536 C 411 520 435 496 454 464 M 148 273 C 148 207 161 155 188 117 C 215 79 253 61 301 61 C 348 61 385 79 413 117 C 440 155 454 207 454 273 C 454 339 440 390 413 428 C 385 466 348 485 301 485 C 253 485 215 466 188 428 C 161 390 148 339 148 273 "/>
</symbol>
<symbol id="font_b_20">
</symbol>
<symbol id="font_b_28">
<path transform="matrix(.001,0,0,.001,-.086,.13100001)" d="M 310 759 C 266 683 234 609 213 536 C 191 463 181 389 181 314 C 181 238 191 164 213 91 C 234 17 266 -56 310 -131 L 232 -131 C 183 -54 146 20 122 94 C 98 168 86 241 86 314 C 86 386 98 459 122 533 C 146 607 182 682 232 759 L 310 759 "/>
</symbol>
<symbol id="font_b_78">
<path transform="matrix(.001,0,0,.001,-.029000001,0)" d="M 549 547 L 351 281 L 559 0 L 453 0 L 294 215 L 135 0 L 29 0 L 241 286 L 47 547 L 153 547 L 298 352 L 443 547 L 549 547 "/>
</symbol>
<symbol id="font_b_61">
<path transform="matrix(.001,0,0,.001,-.060000004,.013)" d="M 343 275 C 270 275 220 266 192 250 C 164 233 150 205 150 165 C 150 133 160 107 181 89 C 202 70 231 61 267 61 C 317 61 357 78 387 114 C 417 149 432 196 432 255 L 432 275 L 343 275 M 522 312 L 522 0 L 432 0 L 432 83 C 411 49 385 25 355 10 C 325 -5 287 -13 243 -13 C 187 -13 142 2 109 33 C 76 64 60 106 60 159 C 60 220 80 266 122 298 C 163 329 224 345 306 345 L 432 345 L 432 354 C 432 395 418 427 391 450 C 364 472 326 484 277 484 C 245 484 215 480 185 472 C 155 464 127 453 100 439 L 100 522 C 132 534 164 544 195 550 C 226 556 256 560 286 560 C 365 560 424 539 463 498 C 502 457 522 395 522 312 "/>
</symbol>
<symbol id="font_b_6d">
<path transform="matrix(.001,0,0,.001,-.091000009,0)" d="M 520 442 C 542 482 569 511 600 531 C 631 550 668 560 711 560 C 767 560 811 540 842 500 C 873 460 889 403 889 330 L 889 0 L 799 0 L 799 327 C 799 379 789 418 771 444 C 752 469 724 482 686 482 C 639 482 602 466 575 435 C 548 404 535 362 535 309 L 535 0 L 445 0 L 445 327 C 445 379 435 418 417 444 C 398 469 369 482 331 482 C 285 482 248 466 221 435 C 194 404 181 362 181 309 L 181 0 L 91 0 L 91 547 L 181 547 L 181 462 C 201 495 226 520 255 536 C 283 552 317 560 357 560 C 397 560 430 550 458 530 C 486 510 506 480 520 442 "/>
</symbol>
<symbol id="font_b_6c">
<path transform="matrix(.001,0,0,.001,-.094000007,0)" d="M 94 760 L 184 760 L 184 0 L 94 0 L 94 760 "/>
</symbol>
<symbol id="font_b_73">
<path transform="matrix(.001,0,0,.001,-.054,.013)" d="M 443 531 L 443 446 C 417 458 391 468 364 475 C 336 481 308 485 279 485 C 234 485 200 478 178 464 C 156 450 145 430 145 403 C 145 382 153 366 169 354 C 185 342 217 330 265 320 L 296 313 C 360 299 405 279 432 255 C 458 230 472 195 472 151 C 472 100 452 60 412 31 C 372 1 316 -13 246 -13 C 216 -13 186 -10 154 -5 C 122 0 89 8 54 20 L 54 113 C 87 95 120 82 152 74 C 184 65 216 61 248 61 C 290 61 323 68 346 82 C 368 96 380 117 380 144 C 380 168 371 187 355 200 C 339 213 303 226 247 238 L 216 245 C 160 257 119 275 95 299 C 70 323 58 356 58 399 C 58 450 76 490 112 518 C 148 546 200 560 268 560 C 301 560 332 557 362 552 C 391 547 418 540 443 531 "/>
</symbol>
<symbol id="font_b_72">
<path transform="matrix(.001,0,0,.001,-.091000009,0)" d="M 411 463 C 401 469 390 473 378 476 C 366 478 353 480 339 480 C 288 480 249 463 222 430 C 194 397 181 350 181 288 L 181 0 L 91 0 L 91 547 L 181 547 L 181 462 C 199 495 224 520 254 536 C 284 552 321 560 365 560 C 371 560 378 559 386 559 C 393 558 401 557 411 555 L 411 463 "/>
</symbol>
<symbol id="font_b_63">
<path transform="matrix(.001,0,0,.001,-.055000005,.013)" d="M 488 526 L 488 442 C 462 456 437 466 411 473 C 385 480 360 484 334 484 C 276 484 230 465 198 428 C 166 391 150 339 150 273 C 150 206 166 154 198 117 C 230 80 276 62 334 62 C 360 62 385 65 411 72 C 437 79 462 90 488 104 L 488 21 C 462 9 436 0 410 -5 C 383 -10 354 -13 324 -13 C 242 -13 176 12 128 64 C 79 115 55 185 55 273 C 55 362 79 432 128 483 C 177 534 244 560 330 560 C 358 560 385 557 411 551 C 437 545 463 537 488 526 "/>
</symbol>
<symbol id="font_b_29">
<path transform="matrix(.001,0,0,.001,-.080000009,.13100001)" d="M 80 759 L 158 759 C 206 682 243 607 267 533 C 291 459 304 386 304 314 C 304 241 291 168 267 94 C 243 20 206 -54 158 -131 L 80 -131 C 123 -56 155 17 177 91 C 198 164 209 238 209 314 C 209 389 198 463 177 536 C 155 609 123 683 80 759 "/>
</symbol>
<use xlink:href="#font_b_53" transform="matrix(26,0,0,-26,226.45166,708.1214)"/>
<use xlink:href="#font_b_70" transform="matrix(26,0,0,-26,243.61167,713.1654)"/>
<use xlink:href="#font_b_65" transform="matrix(26,0,0,-26,259.18568,708.1214)"/>
<use xlink:href="#font_b_65" transform="matrix(26,0,0,-26,275.17567,708.1214)"/>
<use xlink:href="#font_b_64" transform="matrix(26,0,0,-26,291.16566,708.1214)"/>
<use xlink:href="#font_b_20" transform="matrix(26,0,0,-26,279.69969,719.8214)"/>
<use xlink:href="#font_b_28" transform="matrix(26,0,0,-26,316.74967,711.1894)"/>
<use xlink:href="#font_b_65" transform="matrix(26,0,0,-26,326.08369,708.1214)"/>
<use xlink:href="#font_b_78" transform="matrix(26,0,0,-26,341.39768,707.7834)"/>
<use xlink:href="#font_b_61" transform="matrix(26,0,0,-26,357.59568,708.1214)"/>
<use xlink:href="#font_b_6d" transform="matrix(26,0,0,-26,374.33967,707.7834)"/>
<use xlink:href="#font_b_70" transform="matrix(26,0,0,-26,399.66368,713.1654)"/>
<use xlink:href="#font_b_6c" transform="matrix(26,0,0,-26,416.25169,707.7834)"/>
<use xlink:href="#font_b_65" transform="matrix(26,0,0,-26,422.46568,708.1214)"/>
<use xlink:href="#font_b_73" transform="matrix(26,0,0,-26,438.42967,708.1214)"/>
<use xlink:href="#font_b_20" transform="matrix(26,0,0,-26,424.02568,719.8214)"/>
<use xlink:href="#font_b_70" transform="matrix(26,0,0,-26,461.20567,713.1654)"/>
<use xlink:href="#font_b_65" transform="matrix(26,0,0,-26,476.77967,708.1214)"/>
<use xlink:href="#font_b_72" transform="matrix(26,0,0,-26,493.70567,707.7834)"/>
<use xlink:href="#font_b_20" transform="matrix(26,0,0,-26,475.47966,719.8214)"/>
<use xlink:href="#font_b_73" transform="matrix(26,0,0,-26,511.69764,708.1214)"/>
<use xlink:href="#font_b_65" transform="matrix(26,0,0,-26,525.26968,708.1214)"/>
<use xlink:href="#font_b_63" transform="matrix(26,0,0,-26,541.25967,708.1214)"/>
<use xlink:href="#font_b_29" transform="matrix(26,0,0,-26,556.20968,711.1894)"/>
<clipPath id="cp18">
<path transform="matrix(1,0,0,-1,-48.2987,769.549)" d="M 108 108 L 777.6 108 L 777.6 760.32 L 108 760.32 Z "/>
</clipPath>
<g clip-path="url(#cp18)">
<path transform="matrix(1,0,0,-1,-48.2987,769.549)" stroke-width=".8" stroke-linecap="square" stroke-linejoin="round" fill="none" stroke="#bebebe" d="M 108 108 L 777.6 108 "/>
</g>
<path transform="matrix(1,0,0,-1,-48.2987,769.549)" stroke-width=".8" stroke-linecap="butt" stroke-linejoin="round" fill="none" stroke="#000000" d="M 108 108 L 104.5 108 "/>
<symbol id="font_b_34">
<path transform="matrix(.001,0,0,.001,-.049000004,0)" d="M 378 643 L 129 254 L 378 254 L 378 643 M 352 729 L 476 729 L 476 254 L 580 254 L 580 172 L 476 172 L 476 0 L 378 0 L 378 172 L 49 172 L 49 267 L 352 729 "/>
</symbol>
<use xlink:href="#font_b_34" transform="matrix(16,0,0,-16,33.110303,667.62716)"/>
<use xlink:href="#font_b_34" transform="matrix(16,0,0,-16,43.286306,667.62716)"/>
<clipPath id="cp19">
<path transform="matrix(1,0,0,-1,-48.2987,769.549)" d="M 108 108 L 777.6 108 L 777.6 760.32 L 108 760.32 Z "/>
</clipPath>
<g clip-path="url(#cp19)">
<path transform="matrix(1,0,0,-1,-48.2987,769.549)" stroke-width=".8" stroke-linecap="square" stroke-linejoin="round" fill="none" stroke="#bebebe" d="M 108 173.232 L 777.6 173.232 "/>
</g>
<path transform="matrix(1,0,0,-1,-48.2987,769.549)" stroke-width=".8" stroke-linecap="butt" stroke-linejoin="round" fill="none" stroke="#000000" d="M 108 173.232 L 104.5 173.232 "/>
<symbol id="font_b_36">
<path transform="matrix(.001,0,0,.001,-.07,.013)" d="M 330 404 C 286 404 251 388 225 358 C 199 328 186 286 186 234 C 186 181 199 139 225 109 C 251 79 286 64 330 64 C 374 64 409 79 435 109 C 461 139 474 181 474 234 C 474 286 461 328 435 358 C 409 388 374 404 330 404 M 526 713 L 526 623 C 501 635 476 644 451 650 C 425 656 400 659 376 659 C 310 659 260 637 226 593 C 192 549 172 482 168 394 C 187 422 211 444 240 459 C 269 474 301 482 336 482 C 409 482 467 459 509 415 C 551 371 573 310 573 234 C 573 159 550 99 506 54 C 462 9 403 -13 330 -13 C 246 -13 181 19 137 83 C 92 147 70 241 70 364 C 70 479 97 571 152 639 C 206 707 280 742 372 742 C 396 742 421 739 447 735 C 472 730 498 723 526 713 "/>
</symbol>
<use xlink:href="#font_b_34" transform="matrix(16,0,0,-16,33.110303,602.39517)"/>
<use xlink:href="#font_b_36" transform="matrix(16,0,0,-16,43.622304,602.60317)"/>
<clipPath id="cp20">
<path transform="matrix(1,0,0,-1,-48.2987,769.549)" d="M 108 108 L 777.6 108 L 777.6 760.32 L 108 760.32 Z "/>
</clipPath>
<g clip-path="url(#cp20)">
<path transform="matrix(1,0,0,-1,-48.2987,769.549)" stroke-width=".8" stroke-linecap="square" stroke-linejoin="round" fill="none" stroke="#bebebe" d="M 108 238.464 L 777.6 238.464 "/>
</g>
<path transform="matrix(1,0,0,-1,-48.2987,769.549)" stroke-width=".8" stroke-linecap="butt" stroke-linejoin="round" fill="none" stroke="#000000" d="M 108 238.464 L 104.5 238.464 "/>
<symbol id="font_b_38">
<path transform="matrix(.001,0,0,.001,-.068,.013)" d="M 318 346 C 271 346 234 333 207 308 C 180 283 167 249 167 205 C 167 161 180 126 207 101 C 234 76 271 64 318 64 C 364 64 401 76 428 102 C 455 127 469 161 469 205 C 469 249 455 283 429 308 C 402 333 365 346 318 346 M 219 388 C 177 398 144 418 120 447 C 96 476 85 511 85 553 C 85 611 105 657 147 691 C 188 725 245 742 318 742 C 390 742 447 725 489 691 C 530 657 551 611 551 553 C 551 511 539 476 515 447 C 491 418 459 398 417 388 C 464 377 501 355 528 323 C 554 291 568 251 568 205 C 568 134 546 80 503 43 C 459 5 398 -13 318 -13 C 237 -13 175 5 132 43 C 89 80 68 134 68 205 C 68 251 81 291 108 323 C 134 355 171 377 219 388 M 183 544 C 183 506 194 476 218 455 C 242 434 275 424 318 424 C 360 424 393 434 417 455 C 441 476 453 506 453 544 C 453 582 441 611 417 632 C 393 653 360 664 318 664 C 275 664 242 653 218 632 C 194 611 183 582 183 544 "/>
</symbol>
<use xlink:href="#font_b_34" transform="matrix(16,0,0,-16,33.110303,537.16317)"/>
<use xlink:href="#font_b_38" transform="matrix(16,0,0,-16,43.590307,537.37118)"/>
<clipPath id="cp21">
<path transform="matrix(1,0,0,-1,-48.2987,769.549)" d="M 108 108 L 777.6 108 L 777.6 760.32 L 108 760.32 Z "/>
</clipPath>
<g clip-path="url(#cp21)">
<path transform="matrix(1,0,0,-1,-48.2987,769.549)" stroke-width=".8" stroke-linecap="square" stroke-linejoin="round" fill="none" stroke="#bebebe" d="M 108 303.696 L 777.6 303.696 "/>
</g>
<path transform="matrix(1,0,0,-1,-48.2987,769.549)" stroke-width=".8" stroke-linecap="butt" stroke-linejoin="round" fill="none" stroke="#000000" d="M 108 303.696 L 104.5 303.696 "/>
<use xlink:href="#font_b_35" transform="matrix(16,0,0,-16,33.5583,472.13914)"/>
<use xlink:href="#font_b_30" transform="matrix(16,0,0,-16,43.558305,472.13914)"/>
<clipPath id="cp22">
<path transform="matrix(1,0,0,-1,-48.2987,769.549)" d="M 108 108 L 777.6 108 L 777.6 760.32 L 108 760.32 Z "/>
</clipPath>
<g clip-path="url(#cp22)">
<path transform="matrix(1,0,0,-1,-48.2987,769.549)" stroke-width=".8" stroke-linecap="square" stroke-linejoin="round" fill="none" stroke="#bebebe" d="M 108 368.928 L 777.6 368.928 "/>
</g>
<path transform="matrix(1,0,0,-1,-48.2987,769.549)" stroke-width=".8" stroke-linecap="butt" stroke-linejoin="round" fill="none" stroke="#000000" d="M 108 368.928 L 104.5 368.928 "/>
<use xlink:href="#font_b_35" transform="matrix(16,0,0,-16,33.5583,406.90715)"/>
<use xlink:href="#font_b_32" transform="matrix(16,0,0,-16,43.670305,406.69914)"/>
<clipPath id="cp23">
<path transform="matrix(1,0,0,-1,-48.2987,769.549)" d="M 108 108 L 777.6 108 L 777.6 760.32 L 108 760.32 Z "/>
</clipPath>
<g clip-path="url(#cp23)">
<path transform="matrix(1,0,0,-1,-48.2987,769.549)" stroke-width=".8" stroke-linecap="square" stroke-linejoin="round" fill="none" stroke="#bebebe" d="M 108 434.16 L 777.6 434.16 "/>
</g>
<path transform="matrix(1,0,0,-1,-48.2987,769.549)" stroke-width=".8" stroke-linecap="butt" stroke-linejoin="round" fill="none" stroke="#000000" d="M 108 434.16 L 104.5 434.16 "/>
<use xlink:href="#font_b_35" transform="matrix(16,0,0,-16,33.5583,341.67515)"/>
<use xlink:href="#font_b_34" transform="matrix(16,0,0,-16,43.286306,341.46714)"/>
<clipPath id="cp24">
<path transform="matrix(1,0,0,-1,-48.2987,769.549)" d="M 108 108 L 777.6 108 L 777.6 760.32 L 108 760.32 Z "/>
</clipPath>
<g clip-path="url(#cp24)">
<path transform="matrix(1,0,0,-1,-48.2987,769.549)" stroke-width=".8" stroke-linecap="square" stroke-linejoin="round" fill="none" stroke="#bebebe" d="M 108 499.392 L 777.6 499.392 "/>
</g>
<path transform="matrix(1,0,0,-1,-48.2987,769.549)" stroke-width=".8" stroke-linecap="butt" stroke-linejoin="round" fill="none" stroke="#000000" d="M 108 499.392 L 104.5 499.392 "/>
<use xlink:href="#font_b_35" transform="matrix(16,0,0,-16,33.5583,276.44316)"/>
<use xlink:href="#font_b_36" transform="matrix(16,0,0,-16,43.622304,276.44316)"/>
<clipPath id="cp25">
<path transform="matrix(1,0,0,-1,-48.2987,769.549)" d="M 108 108 L 777.6 108 L 777.6 760.32 L 108 760.32 Z "/>
</clipPath>
<g clip-path="url(#cp25)">
<path transform="matrix(1,0,0,-1,-48.2987,769.549)" stroke-width=".8" stroke-linecap="square" stroke-linejoin="round" fill="none" stroke="#bebebe" d="M 108 564.624 L 777.6 564.624 "/>
</g>
<path transform="matrix(1,0,0,-1,-48.2987,769.549)" stroke-width=".8" stroke-linecap="butt" stroke-linejoin="round" fill="none" stroke="#000000" d="M 108 564.624 L 104.5 564.624 "/>
<use xlink:href="#font_b_35" transform="matrix(16,0,0,-16,33.5583,211.2111)"/>
<use xlink:href="#font_b_38" transform="matrix(16,0,0,-16,43.590307,211.2111)"/>
<clipPath id="cp26">
<path transform="matrix(1,0,0,-1,-48.2987,769.549)" d="M 108 108 L 777.6 108 L 777.6 760.32 L 108 760.32 Z "/>
</clipPath>
<g clip-path="url(#cp26)">
<path transform="matrix(1,0,0,-1,-48.2987,769.549)" stroke-width=".8" stroke-linecap="square" stroke-linejoin="round" fill="none" stroke="#bebebe" d="M 108 629.856 L 777.6 629.856 "/>
</g>
<path transform="matrix(1,0,0,-1,-48.2987,769.549)" stroke-width=".8" stroke-linecap="butt" stroke-linejoin="round" fill="none" stroke="#000000" d="M 108 629.856 L 104.5 629.856 "/>
<use xlink:href="#font_b_36" transform="matrix(16,0,0,-16,33.4463,145.97911)"/>
<use xlink:href="#font_b_30" transform="matrix(16,0,0,-16,43.558305,145.97911)"/>
<clipPath id="cp27">
<path transform="matrix(1,0,0,-1,-48.2987,769.549)" d="M 108 108 L 777.6 108 L 777.6 760.32 L 108 760.32 Z "/>
</clipPath>
<g clip-path="url(#cp27)">
<path transform="matrix(1,0,0,-1,-48.2987,769.549)" stroke-width=".8" stroke-linecap="square" stroke-linejoin="round" fill="none" stroke="#bebebe" d="M 108 695.088 L 777.6 695.088 "/>
</g>
<path transform="matrix(1,0,0,-1,-48.2987,769.549)" stroke-width=".8" stroke-linecap="butt" stroke-linejoin="round" fill="none" stroke="#000000" d="M 108 695.088 L 104.5 695.088 "/>
<use xlink:href="#font_b_36" transform="matrix(16,0,0,-16,33.4463,80.74712)"/>
<use xlink:href="#font_b_32" transform="matrix(16,0,0,-16,43.670305,80.53912)"/>
<clipPath id="cp28">
<path transform="matrix(1,0,0,-1,-48.2987,769.549)" d="M 108 108 L 777.6 108 L 777.6 760.32 L 108 760.32 Z "/>
</clipPath>
<g clip-path="url(#cp28)">
<path transform="matrix(1,0,0,-1,-48.2987,769.549)" stroke-width=".8" stroke-linecap="square" stroke-linejoin="round" fill="none" stroke="#bebebe" d="M 108 760.32 L 777.6 760.32 "/>
</g>
<path transform="matrix(1,0,0,-1,-48.2987,769.549)" stroke-width=".8" stroke-linecap="butt" stroke-linejoin="round" fill="none" stroke="#000000" d="M 108 760.32 L 104.5 760.32 "/>
<use xlink:href="#font_b_36" transform="matrix(16,0,0,-16,33.4463,15.515129)"/>
<use xlink:href="#font_b_34" transform="matrix(16,0,0,-16,43.286306,15.307129)"/>
<symbol id="font_b_4c">
<path transform="matrix(.001,0,0,.001,-.098000008,0)" d="M 98 729 L 197 729 L 197 83 L 552 83 L 552 0 L 98 0 L 98 729 "/>
</symbol>
<symbol id="font_b_52">
<path transform="matrix(.001,0,0,.001,-.098000008,0)" d="M 444 342 C 465 334 486 319 506 296 C 526 272 546 240 566 199 L 666 0 L 560 0 L 467 187 C 443 235 419 268 397 284 C 374 300 343 308 304 308 L 197 308 L 197 0 L 98 0 L 98 729 L 321 729 C 404 729 466 711 507 677 C 548 642 569 589 569 519 C 569 473 558 434 537 404 C 515 374 484 353 444 342 M 197 648 L 197 389 L 321 389 C 368 389 404 400 428 422 C 452 444 465 476 465 519 C 465 561 452 593 428 615 C 404 637 368 648 321 648 L 197 648 "/>
</symbol>
<symbol id="font_b_41">
<path transform="matrix(.001,0,0,.001,-.008,0)" d="M 342 632 L 208 269 L 476 269 L 342 632 M 286 729 L 398 729 L 676 0 L 573 0 L 507 187 L 178 187 L 112 0 L 8 0 L 286 729 "/>
</symbol>
<symbol id="font_b_6f">
<path transform="matrix(.001,0,0,.001,-.055000005,.013)" d="M 306 484 C 258 484 220 465 192 427 C 164 389 150 338 150 273 C 150 207 163 156 191 118 C 219 80 257 62 306 62 C 354 62 392 80 420 118 C 448 156 462 207 462 273 C 462 337 448 389 420 427 C 392 465 354 484 306 484 M 306 560 C 384 560 445 534 490 484 C 534 433 557 363 557 273 C 557 183 534 113 490 63 C 445 12 384 -13 306 -13 C 227 -13 165 12 121 63 C 77 113 55 183 55 273 C 55 363 77 433 121 484 C 165 534 227 560 306 560 "/>
</symbol>
<use xlink:href="#font_b_4c" transform="matrix(0,-26,-26,-0,22.920052,398.82539)"/>
<use xlink:href="#font_b_52" transform="matrix(0,-26,-26,-0,22.920052,384.34339)"/>
<use xlink:href="#font_b_41" transform="matrix(0,-26,-26,-0,22.920052,368.61338)"/>
<use xlink:href="#font_b_20" transform="matrix(0,-26,-26,-0,34.958055,377.58338)"/>
<use xlink:href="#font_b_53" transform="matrix(0,-26,-26,-0,23.25805,341.05339)"/>
<use xlink:href="#font_b_63" transform="matrix(0,-26,-26,-0,23.25805,324.82939)"/>
<use xlink:href="#font_b_6f" transform="matrix(0,-26,-26,-0,23.25805,310.5294)"/>
<use xlink:href="#font_b_72" transform="matrix(0,-26,-26,-0,22.920052,293.6814)"/>
<use xlink:href="#font_b_65" transform="matrix(0,-26,-26,-0,23.25805,283.9314)"/>
<path transform="matrix(1,0,0,-1,-48.2987,769.549)" stroke-width=".8" stroke-linecap="square" stroke-miterlimit="10" stroke-linejoin="miter" fill="none" stroke="#000000" d="M 108 108 L 108 760.32 "/>
<path transform="matrix(1,0,0,-1,-48.2987,769.549)" stroke-width=".8" stroke-linecap="square" stroke-miterlimit="10" stroke-linejoin="miter" fill="none" stroke="#000000" d="M 777.6 108 L 777.6 760.32 "/>
<path transform="matrix(1,0,0,-1,-48.2987,769.549)" stroke-width=".8" stroke-linecap="square" stroke-miterlimit="10" stroke-linejoin="miter" fill="none" stroke="#000000" d="M 108 108 L 777.6 108 "/>
<path transform="matrix(1,0,0,-1,-48.2987,769.549)" stroke-width=".8" stroke-linecap="square" stroke-miterlimit="10" stroke-linejoin="miter" fill="none" stroke="#000000" d="M 108 760.32 L 777.6 760.32 "/>
<symbol id="font_b_54">
<path transform="matrix(.001,0,0,.001,.002,0)" d="M -2 729 L 614 729 L 614 646 L 355 646 L 355 0 L 256 0 L 256 646 L -2 646 L -2 729 "/>
</symbol>
<symbol id="font_b_6e">
<path transform="matrix(.001,0,0,.001,-.091000009,0)" d="M 549 330 L 549 0 L 459 0 L 459 327 C 459 379 448 417 428 443 C 408 469 378 482 338 482 C 289 482 251 466 223 435 C 195 404 181 362 181 309 L 181 0 L 91 0 L 91 547 L 181 547 L 181 462 C 202 494 227 519 257 535 C 286 551 320 560 358 560 C 420 560 468 540 500 501 C 532 462 549 405 549 330 "/>
</symbol>
<symbol id="font_b_66">
<path transform="matrix(.001,0,0,.001,-.023000002,0)" d="M 371 760 L 371 685 L 285 685 C 253 685 230 678 218 665 C 205 652 199 629 199 595 L 199 547 L 347 547 L 347 477 L 199 477 L 199 0 L 109 0 L 109 477 L 23 477 L 23 547 L 109 547 L 109 585 C 109 645 123 690 151 718 C 179 746 224 760 286 760 L 371 760 "/>
</symbol>
<use xlink:href="#font_b_54" transform="matrix(20,0,0,-20,182.86772,322.66877)"/>
<use xlink:href="#font_b_72" transform="matrix(20,0,0,-20,196.94773,322.66877)"/>
<use xlink:href="#font_b_61" transform="matrix(20,0,0,-20,204.54772,322.92878)"/>
<use xlink:href="#font_b_6e" transform="matrix(20,0,0,-20,217.4277,322.66877)"/>
<use xlink:href="#font_b_73" transform="matrix(20,0,0,-20,229.36769,322.92878)"/>
<use xlink:href="#font_b_66" transform="matrix(20,0,0,-20,239.16771,322.66877)"/>
<use xlink:href="#font_b_6f" transform="matrix(20,0,0,-20,246.84772,322.92878)"/>
<use xlink:href="#font_b_72" transform="matrix(20,0,0,-20,259.8077,322.66877)"/>
<use xlink:href="#font_b_6d" transform="matrix(20,0,0,-20,268.0277,322.66877)"/>
<use xlink:href="#font_b_65" transform="matrix(20,0,0,-20,286.78773,322.92878)"/>
<use xlink:href="#font_b_72" transform="matrix(20,0,0,-20,299.8077,322.66877)"/>
<symbol id="font_b_74">
<path transform="matrix(.001,0,0,.001,-.027,0)" d="M 183 702 L 183 547 L 368 547 L 368 477 L 183 477 L 183 180 C 183 135 189 106 201 94 C 213 81 238 75 276 75 L 368 75 L 368 0 L 276 0 C 206 0 158 13 132 39 C 106 65 93 112 93 180 L 93 477 L 27 477 L 27 547 L 93 547 L 93 702 L 183 702 "/>
</symbol>
<symbol id="font_b_69">
<path transform="matrix(.001,0,0,.001,-.094000007,0)" d="M 94 547 L 184 547 L 184 0 L 94 0 L 94 547 M 94 760 L 184 760 L 184 646 L 94 646 L 94 760 "/>
</symbol>
<use xlink:href="#font_b_4c" transform="matrix(20,0,0,-20,498.03446,578.05209)"/>
<use xlink:href="#font_b_6f" transform="matrix(20,0,0,-20,508.31449,578.3121)"/>
<use xlink:href="#font_b_63" transform="matrix(20,0,0,-20,520.55447,578.3121)"/>
<use xlink:href="#font_b_61" transform="matrix(20,0,0,-20,531.6545,578.3121)"/>
<use xlink:href="#font_b_6c" transform="matrix(20,0,0,-20,544.5945,578.05209)"/>
<use xlink:href="#font_b_20" transform="matrix(20,0,0,-20,527.8545,587.3121)"/>
<use xlink:href="#font_b_41" transform="matrix(20,0,0,-20,554.79446,578.05209)"/>
<use xlink:href="#font_b_74" transform="matrix(20,0,0,-20,568.85446,578.05209)"/>
<use xlink:href="#font_b_74" transform="matrix(20,0,0,-20,576.69448,578.05209)"/>
<use xlink:href="#font_b_65" transform="matrix(20,0,0,-20,585.0945,578.3121)"/>
<use xlink:href="#font_b_6e" transform="matrix(20,0,0,-20,598.1145,578.05209)"/>
<use xlink:href="#font_b_74" transform="matrix(20,0,0,-20,609.51449,578.05209)"/>
<use xlink:href="#font_b_69" transform="matrix(20,0,0,-20,618.6945,578.05209)"/>
<use xlink:href="#font_b_6f" transform="matrix(20,0,0,-20,623.4745,578.3121)"/>
<use xlink:href="#font_b_6e" transform="matrix(20,0,0,-20,636.4345,578.05209)"/>
<use xlink:href="#font_b_4c" transform="matrix(20,0,0,-20,466.3057,414.97206)"/>
<use xlink:href="#font_b_69" transform="matrix(20,0,0,-20,477.36573,414.97206)"/>
<use xlink:href="#font_b_6e" transform="matrix(20,0,0,-20,482.86573,414.97206)"/>
<use xlink:href="#font_b_66" transform="matrix(20,0,0,-20,494.1857,414.97206)"/>
<use xlink:href="#font_b_6f" transform="matrix(20,0,0,-20,501.8657,415.23207)"/>
<use xlink:href="#font_b_72" transform="matrix(20,0,0,-20,514.8257,414.97206)"/>
<use xlink:href="#font_b_6d" transform="matrix(20,0,0,-20,523.04568,414.97206)"/>
<use xlink:href="#font_b_65" transform="matrix(20,0,0,-20,541.8056,415.23207)"/>
<use xlink:href="#font_b_72" transform="matrix(20,0,0,-20,554.8256,414.97206)"/>
<use xlink:href="#font_b_52" transform="matrix(20,0,0,-20,148.60628,444.0003)"/>
<use xlink:href="#font_b_65" transform="matrix(20,0,0,-20,161.64627,444.2603)"/>
<use xlink:href="#font_b_66" transform="matrix(20,0,0,-20,173.30629,444.0003)"/>
<use xlink:href="#font_b_6f" transform="matrix(20,0,0,-20,180.98627,444.2603)"/>
<use xlink:href="#font_b_72" transform="matrix(20,0,0,-20,193.94629,444.0003)"/>
<use xlink:href="#font_b_6d" transform="matrix(20,0,0,-20,202.16629,444.0003)"/>
<use xlink:href="#font_b_65" transform="matrix(20,0,0,-20,220.92627,444.2603)"/>
<use xlink:href="#font_b_72" transform="matrix(20,0,0,-20,233.94626,444.0003)"/>
<symbol id="font_b_6b">
<path transform="matrix(.001,0,0,.001,-.091000009,0)" d="M 91 760 L 181 760 L 181 311 L 449 547 L 564 547 L 274 291 L 576 0 L 459 0 L 181 267 L 181 0 L 91 0 L 91 760 "/>
</symbol>
<symbol id="font_b_68">
<path transform="matrix(.001,0,0,.001,-.091000009,0)" d="M 549 330 L 549 0 L 459 0 L 459 327 C 459 379 448 417 428 443 C 408 469 378 482 338 482 C 289 482 251 466 223 435 C 195 404 181 362 181 309 L 181 0 L 91 0 L 91 760 L 181 760 L 181 462 C 202 494 227 519 257 535 C 286 551 320 560 358 560 C 420 560 468 540 500 501 C 532 462 549 405 549 330 "/>
</symbol>
<symbol id="font_b_2e">
<path transform="matrix(.001,0,0,.001,-.10700001,0)" d="M 107 124 L 210 124 L 210 0 L 107 0 L 107 124 "/>
</symbol>
<use xlink:href="#font_b_53" transform="matrix(20,0,0,-20,348.64027,453.3928)"/>
<use xlink:href="#font_b_69" transform="matrix(20,0,0,-20,361.90028,453.13279)"/>
<use xlink:href="#font_b_6e" transform="matrix(20,0,0,-20,367.40028,453.13279)"/>
<use xlink:href="#font_b_6b" transform="matrix(20,0,0,-20,380.08027,453.13279)"/>
<use xlink:href="#font_b_68" transform="matrix(20,0,0,-20,391.66026,453.13279)"/>
<use xlink:href="#font_b_6f" transform="matrix(20,0,0,-20,403.62025,453.3928)"/>
<use xlink:href="#font_b_72" transform="matrix(20,0,0,-20,416.58024,453.13279)"/>
<use xlink:href="#font_b_6e" transform="matrix(20,0,0,-20,424.80024,453.13279)"/>
<use xlink:href="#font_b_20" transform="matrix(20,0,0,-20,415.2402,462.3928)"/>
<use xlink:href="#font_b_54" transform="matrix(20,0,0,-20,441.9802,453.13279)"/>
<use xlink:href="#font_b_72" transform="matrix(20,0,0,-20,456.0602,453.13279)"/>
<use xlink:href="#font_b_61" transform="matrix(20,0,0,-20,463.66023,453.3928)"/>
<use xlink:href="#font_b_6e" transform="matrix(20,0,0,-20,476.54023,453.13279)"/>
<use xlink:href="#font_b_73" transform="matrix(20,0,0,-20,488.4802,453.3928)"/>
<use xlink:href="#font_b_2e" transform="matrix(20,0,0,-20,499.9602,453.13279)"/>
<symbol id="font_b_79">
<path transform="matrix(.001,0,0,.001,-.030000002,.20700002)" d="M 322 -50 C 296 -114 271 -157 247 -177 C 223 -197 191 -207 151 -207 L 79 -207 L 79 -132 L 132 -132 C 156 -132 175 -126 189 -114 C 203 -102 218 -75 235 -31 L 251 9 L 30 547 L 125 547 L 296 119 L 467 547 L 562 547 L 322 -50 "/>
</symbol>
<symbol id="font_b_7a">
<path transform="matrix(.001,0,0,.001,-.043,0)" d="M 55 547 L 482 547 L 482 465 L 144 72 L 482 72 L 482 0 L 43 0 L 43 82 L 381 475 L 55 475 L 55 547 "/>
</symbol>
<use xlink:href="#font_b_53" transform="matrix(20,0,0,-20,217.19263,372.17897)"/>
<use xlink:href="#font_b_79" transform="matrix(20,0,0,-20,229.17264,376.05897)"/>
<use xlink:href="#font_b_6e" transform="matrix(20,0,0,-20,242.23264,371.91896)"/>
<use xlink:href="#font_b_74" transform="matrix(20,0,0,-20,253.63262,371.91896)"/>
<use xlink:href="#font_b_68" transform="matrix(20,0,0,-20,262.75263,371.91896)"/>
<use xlink:href="#font_b_65" transform="matrix(20,0,0,-20,274.71263,372.17897)"/>
<use xlink:href="#font_b_73" transform="matrix(20,0,0,-20,286.99259,372.17897)"/>
<use xlink:href="#font_b_69" transform="matrix(20,0,0,-20,298.21263,371.91896)"/>
<use xlink:href="#font_b_7a" transform="matrix(20,0,0,-20,302.7526,371.91896)"/>
<use xlink:href="#font_b_65" transform="matrix(20,0,0,-20,313.4926,372.17897)"/>
<use xlink:href="#font_b_72" transform="matrix(20,0,0,-20,326.5126,371.91896)"/>
<symbol id="font_b_42">
<path transform="matrix(.001,0,0,.001,-.098000008,0)" d="M 197 348 L 197 81 L 355 81 C 408 81 447 92 473 114 C 498 136 511 169 511 215 C 511 260 498 293 473 315 C 447 337 408 348 355 348 L 197 348 M 197 648 L 197 428 L 343 428 C 391 428 426 437 450 455 C 474 473 486 500 486 538 C 486 574 474 602 450 620 C 426 638 391 648 343 648 L 197 648 M 98 729 L 350 729 C 425 729 483 713 524 682 C 564 650 585 606 585 549 C 585 504 574 468 553 442 C 532 416 502 399 462 393 C 510 382 548 360 575 327 C 601 294 615 253 615 204 C 615 138 592 88 548 53 C 504 17 441 0 360 0 L 98 0 L 98 729 "/>
</symbol>
<symbol id="font_b_67">
<path transform="matrix(.001,0,0,.001,-.055000005,.20700002)" d="M 454 280 C 454 344 440 395 414 431 C 387 467 349 485 301 485 C 253 485 215 467 188 431 C 161 395 148 344 148 280 C 148 215 161 165 188 129 C 215 93 253 75 301 75 C 349 75 387 93 414 129 C 440 165 454 215 454 280 M 544 68 C 544 -24 523 -93 482 -139 C 440 -184 377 -207 292 -207 C 260 -207 231 -204 203 -200 C 175 -195 147 -188 121 -178 L 121 -91 C 147 -105 173 -115 199 -122 C 225 -129 251 -133 278 -133 C 336 -133 380 -117 410 -87 C 439 -56 454 -10 454 52 L 454 96 C 435 64 411 40 382 24 C 353 8 319 0 279 0 C 211 0 157 25 116 76 C 75 127 55 195 55 280 C 55 364 75 432 116 483 C 157 534 211 560 279 560 C 319 560 353 552 382 536 C 411 520 435 496 454 464 L 454 547 L 544 547 L 544 68 "/>
</symbol>
<use xlink:href="#font_b_42" transform="matrix(20,0,0,-20,170.85762,286.13887)"/>
<use xlink:href="#font_b_69" transform="matrix(20,0,0,-20,184.49762,286.13887)"/>
<use xlink:href="#font_b_67" transform="matrix(20,0,0,-20,189.27762,290.27888)"/>
<use xlink:href="#font_b_42" transform="matrix(20,0,0,-20,202.8376,286.13887)"/>
<use xlink:href="#font_b_69" transform="matrix(20,0,0,-20,216.4776,286.13887)"/>
<use xlink:href="#font_b_72" transform="matrix(20,0,0,-20,221.9776,286.13887)"/>
<use xlink:href="#font_b_64" transform="matrix(20,0,0,-20,229.4776,286.39888)"/>
<use xlink:href="#font_b_4c" transform="matrix(20,0,0,-20,534.70797,480.5302)"/>
<use xlink:href="#font_b_69" transform="matrix(20,0,0,-20,545.76797,480.5302)"/>
<use xlink:href="#font_b_6e" transform="matrix(20,0,0,-20,551.26797,480.5302)"/>
<use xlink:href="#font_b_65" transform="matrix(20,0,0,-20,563.2279,480.79023)"/>
<use xlink:href="#font_b_61" transform="matrix(20,0,0,-20,575.6279,480.79023)"/>
<use xlink:href="#font_b_72" transform="matrix(20,0,0,-20,588.50796,480.5302)"/>
<use xlink:href="#font_b_20" transform="matrix(20,0,0,-20,574.4879,489.79023)"/>
<use xlink:href="#font_b_54" transform="matrix(20,0,0,-20,601.2279,480.5302)"/>
<use xlink:href="#font_b_72" transform="matrix(20,0,0,-20,615.30789,480.5302)"/>
<use xlink:href="#font_b_61" transform="matrix(20,0,0,-20,622.90786,480.79023)"/>
<use xlink:href="#font_b_6e" transform="matrix(20,0,0,-20,635.78787,480.5302)"/>
<use xlink:href="#font_b_73" transform="matrix(20,0,0,-20,647.72787,480.79023)"/>
<use xlink:href="#font_b_2e" transform="matrix(20,0,0,-20,659.2078,480.5302)"/>
<symbol id="font_b_50">
<path transform="matrix(.001,0,0,.001,-.098000008,0)" d="M 197 648 L 197 374 L 321 374 C 367 374 402 385 427 409 C 452 433 465 467 465 511 C 465 555 452 588 427 612 C 402 636 367 648 321 648 L 197 648 M 98 729 L 321 729 C 402 729 464 710 506 673 C 548 636 569 582 569 511 C 569 439 548 384 506 348 C 464 311 402 293 321 293 L 197 293 L 197 0 L 98 0 L 98 729 "/>
</symbol>
<use xlink:href="#font_b_50" transform="matrix(20,0,0,-20,589.1001,403.55647)"/>
<use xlink:href="#font_b_65" transform="matrix(20,0,0,-20,600.30007,403.81648)"/>
<use xlink:href="#font_b_72" transform="matrix(20,0,0,-20,613.32009,403.55647)"/>
<use xlink:href="#font_b_66" transform="matrix(20,0,0,-20,620.18008,403.55647)"/>
<use xlink:href="#font_b_6f" transform="matrix(20,0,0,-20,627.86,403.81648)"/>
<use xlink:href="#font_b_72" transform="matrix(20,0,0,-20,640.82,403.55647)"/>
<use xlink:href="#font_b_6d" transform="matrix(20,0,0,-20,649.04,403.55647)"/>
<use xlink:href="#font_b_65" transform="matrix(20,0,0,-20,667.7999,403.81648)"/>
<use xlink:href="#font_b_72" transform="matrix(20,0,0,-20,680.81997,403.55647)"/>
<symbol id="font_b_4d">
<path transform="matrix(.001,0,0,.001,-.098000008,0)" d="M 98 729 L 245 729 L 431 233 L 618 729 L 765 729 L 765 0 L 669 0 L 669 640 L 481 140 L 382 140 L 194 640 L 194 0 L 98 0 L 98 729 "/>
</symbol>
<use xlink:href="#font_b_4d" transform="matrix(20,0,0,-20,332.7978,68.91632)"/>
<use xlink:href="#font_b_6f" transform="matrix(20,0,0,-20,349.1978,69.17632)"/>
<use xlink:href="#font_b_73" transform="matrix(20,0,0,-20,361.4178,69.17632)"/>
<use xlink:href="#font_b_73" transform="matrix(20,0,0,-20,371.8378,69.17632)"/>
</g>
</g>
</svg>
